<?xml version="1.0" standalone="no"?>
<!DOCTYPE svg PUBLIC "-//W3C//DTD SVG 20010904//EN"
 "http://www.w3.org/TR/2001/REC-SVG-20010904/DTD/svg10.dtd">
<svg version="1.0" xmlns="http://www.w3.org/2000/svg"
 width="512.000000pt" height="512.000000pt" viewBox="0 0 512.000000 512.000000"
 preserveAspectRatio="xMidYMid meet">
<metadata>
Created by potrace 1.14, written by Peter Selinger 2001-2017
</metadata>
<g transform="translate(0.000000,512.000000) scale(0.100000,-0.100000)"
fill="#000000" stroke="none">
<path d="M2235 5094 c-563 -76 -1052 -311 -1453 -699 -412 -398 -672 -905
-756 -1476 -22 -147 -22 -571 0 -718 168 -1149 1070 -2035 2214 -2176 163 -20
473 -20 627 0 597 78 1118 340 1530 769 591 614 834 1478 653 2321 -58 267
-209 622 -368 860 -417 626 -1103 1044 -1844 1124 -133 15 -481 12 -603 -5z
m898 -388 c21 -16 22 -26 2 -26 -8 0 -15 5 -15 10 0 16 -37 12 -43 -5 -7 -16
8 -29 23 -20 6 3 10 2 10 -3 0 -5 10 -14 23 -20 18 -9 19 -11 4 -11 -10 -1
-27 4 -39 10 -22 12 -40 3 -19 -10 10 -7 9 -10 -3 -14 -9 -4 -16 -13 -16 -22
0 -8 -5 -15 -11 -15 -6 0 -8 7 -5 17 4 9 9 32 12 52 3 20 10 41 15 47 5 6 6
14 2 17 -12 13 42 6 60 -7z m-344 -5 c8 -5 -3 -8 -33 -7 -25 0 -46 4 -46 9 0
10 62 9 79 -2z m98 -29 c12 -7 32 -12 45 -12 18 0 26 -9 36 -37 20 -58 20 -77
-3 -81 -11 -3 -23 -9 -27 -16 -5 -7 -8 -4 -8 7 0 10 -10 22 -22 27 -31 12 -2
13 40 1 30 -9 31 -8 22 10 -6 11 -30 24 -55 30 -25 6 -45 15 -45 20 0 11 3 11
34 0 40 -16 38 11 -3 31 -39 19 -65 24 -41 8 13 -9 13 -11 0 -19 -18 -12 -31
-5 -24 14 5 12 0 14 -25 9 -35 -7 -42 3 -11 14 28 10 61 8 87 -6z m278 -1 c-3
-6 -11 -11 -16 -11 -5 0 -4 6 3 14 14 16 24 13 13 -3z m-410 -36 c9 -11 40
-21 94 -30 32 -5 52 -25 26 -25 -11 0 -31 -6 -45 -13 -27 -14 -100 -2 -100 16
0 5 10 6 23 2 50 -15 67 -17 67 -6 0 16 -50 33 -76 27 -13 -4 -26 -2 -29 4 -3
5 1 10 10 10 22 0 9 19 -22 31 -13 5 -21 14 -18 20 7 10 50 -11 70 -36z m365
-33 c0 -4 -12 -15 -27 -24 -27 -17 -27 -17 -5 -18 12 0 22 -4 22 -10 0 -5 -9
-10 -20 -10 -13 0 -18 -5 -14 -15 7 -18 -17 -20 -34 -3 -10 10 -14 8 -18 -9
-5 -18 -10 -20 -35 -13 -16 5 -29 6 -29 2 1 -17 19 -29 72 -45 31 -10 59 -24
62 -32 4 -12 0 -14 -22 -9 -15 4 -29 11 -31 17 -2 5 -7 3 -12 -4 -6 -10 -28
-13 -71 -12 -35 0 -52 -1 -38 -4 48 -8 90 -25 90 -34 0 -6 -6 -7 -12 -2 -7 4
-23 8 -36 8 -18 1 -20 -1 -9 -12 13 -13 51 -19 76 -12 8 2 16 -3 18 -13 4 -14
-4 -15 -56 -12 -61 4 -91 -9 -45 -20 13 -4 29 -4 33 -1 5 2 14 -2 21 -10 7 -8
16 -12 21 -10 4 3 16 1 26 -4 10 -5 26 -12 35 -15 18 -5 14 -46 -5 -46 -6 0
-4 -6 5 -12 13 -11 15 -22 9 -61 -7 -40 -5 -47 6 -42 8 3 19 5 24 5 6 0 7 4 4
10 -3 5 -1 19 5 30 9 17 18 20 48 16 23 -4 28 -3 14 2 -13 4 -23 9 -23 12 0 9
14 45 20 50 3 3 16 23 28 45 16 31 27 40 47 40 14 -1 26 3 26 7 0 4 -7 8 -15
8 -9 0 3 19 30 47 41 43 47 45 70 35 26 -12 26 -32 -1 -32 -18 0 -18 -5 3 -30
19 -22 49 -28 36 -7 -12 19 -14 47 -4 47 5 0 15 17 22 38 23 71 55 87 46 22
-4 -30 -2 -40 9 -40 8 0 14 -5 14 -11 0 -5 -5 -7 -12 -3 -6 4 -8 3 -5 -3 6
-10 54 -10 63 0 3 2 -10 11 -27 19 -20 10 -27 18 -19 23 6 4 15 18 20 31 6 14
18 24 30 24 22 0 26 -20 8 -38 -6 -6 -9 -15 -5 -18 9 -9 37 15 37 32 0 32 65
35 151 5 43 -14 54 -23 61 -46 4 -15 19 -41 34 -56 15 -16 25 -29 21 -29 -4 0
2 -9 13 -20 11 -11 20 -25 20 -31 0 -6 -7 -3 -16 6 -10 10 -19 12 -23 7 -6
-10 -14 -10 -105 4 -40 6 -48 4 -44 -7 3 -8 13 -14 24 -14 10 0 25 -4 32 -8 6
-5 33 -5 58 -1 34 5 45 4 40 -5 -4 -6 -16 -11 -27 -11 -10 0 -19 -5 -19 -10 0
-7 -6 -7 -20 0 -14 8 -20 8 -20 0 0 -6 -5 -8 -11 -4 -16 9 -99 12 -99 3 0 -4
7 -9 15 -13 8 -3 15 -13 15 -22 0 -16 -1 -16 -18 -1 -10 10 -27 17 -38 17 -11
0 -15 -3 -8 -8 16 -10 10 -48 -10 -71 -16 -18 -17 -22 -3 -42 13 -18 14 -24 2
-35 -17 -18 -30 -18 -45 1 -6 8 -21 13 -33 12 -14 -1 -22 5 -25 18 -5 24 -21
45 -33 45 -15 0 2 -54 22 -72 10 -9 27 -14 38 -11 10 3 22 0 25 -6 4 -6 2 -11
-3 -11 -6 0 -11 -5 -11 -10 0 -7 7 -7 20 0 11 6 25 8 30 5 5 -3 11 -1 14 4 8
12 86 -10 86 -25 0 -7 -5 -14 -12 -16 -6 -2 9 -4 34 -4 33 1 44 5 41 14 -3 7
-13 10 -24 7 -14 -5 -19 -1 -19 14 0 11 5 23 10 26 6 3 10 1 10 -5 0 -7 7 -9
16 -6 11 4 26 -5 45 -26 16 -18 29 -36 29 -40 0 -11 -18 -10 -25 2 -11 18 -26
10 -23 -12 2 -19 -1 -22 -22 -20 -14 2 -29 8 -34 13 -6 5 -20 9 -33 9 -13 0
-23 5 -23 10 0 6 -8 10 -17 10 -9 0 -25 8 -36 18 -19 16 -20 16 -14 0 4 -10 2
-18 -3 -18 -6 0 -10 -4 -10 -10 0 -5 6 -7 13 -4 8 3 27 0 42 -6 22 -8 26 -13
16 -20 -11 -6 -9 -12 8 -31 11 -12 28 -24 37 -25 30 -5 27 -14 -5 -14 -19 0
-46 10 -65 25 -39 30 -56 33 -31 5 10 -11 22 -17 26 -14 5 3 9 -2 9 -10 0 -16
-22 -13 -47 7 -7 5 -13 6 -13 1 0 -5 -5 -1 -11 10 -9 15 -13 16 -20 5 -7 -11
-9 -11 -9 2 0 10 -11 19 -25 21 -30 6 -34 -8 -5 -17 11 -3 20 -11 20 -16 0 -5
8 -9 18 -9 10 0 27 -7 38 -15 10 -8 26 -15 35 -15 9 0 28 -9 42 -20 14 -11 33
-20 42 -20 15 0 15 2 1 15 -8 8 -19 15 -25 15 -6 0 -11 5 -11 11 0 6 10 10 23
9 12 -1 24 -1 27 0 20 8 50 4 54 -6 3 -8 0 -11 -8 -8 -21 8 -32 -17 -12 -28
24 -13 20 -30 -6 -23 -22 6 -22 6 -4 -9 19 -15 19 -16 -7 -16 -15 0 -27 5 -27
10 0 6 -13 10 -30 10 -16 0 -30 5 -30 10 0 6 -7 10 -15 10 -8 0 -15 5 -15 10
0 6 -10 9 -22 9 -17 -1 -19 -2 -5 -6 9 -2 17 -9 17 -14 0 -5 7 -9 15 -9 17 0
20 -27 5 -50 -8 -13 -11 -11 -16 8 -4 12 -14 22 -23 22 -13 0 -13 -2 -2 -9 9
-6 12 -18 7 -37 l-8 -29 -16 28 c-17 27 -32 35 -32 17 0 -5 -14 -10 -31 -10
-20 0 -37 -8 -49 -22 -14 -18 -21 -20 -32 -11 -17 14 -54 10 -51 -6 4 -14 -14
-15 -22 -1 -10 17 -25 11 -25 -10 0 -14 -7 -20 -22 -20 -21 1 -22 2 -6 14 16
12 16 14 -8 24 -47 22 -67 13 -39 -18 16 -17 10 -60 -9 -60 -6 0 -22 14 -36
31 l-26 30 -27 -25 c-16 -14 -32 -26 -38 -26 -5 0 -9 -6 -9 -14 0 -8 -6 -17
-12 -20 -9 -3 -8 -8 5 -16 9 -6 25 -20 35 -30 16 -17 22 -18 56 -8 29 9 39 9
45 0 5 -9 15 -5 35 14 19 19 36 27 59 26 58 -1 70 -5 74 -22 4 -14 14 -17 49
-15 25 2 52 9 61 16 13 11 17 10 28 -4 14 -19 52 -22 75 -6 11 8 7 9 -17 5
-18 -3 -35 -1 -38 4 -3 6 3 10 15 10 12 0 29 7 37 16 11 11 27 14 52 11 59 -9
95 -19 111 -32 8 -6 36 -19 63 -29 26 -10 47 -22 47 -27 0 -5 7 -9 16 -9 21 0
101 -37 110 -51 5 -8 1 -8 -14 0 -31 17 -37 13 -17 -9 10 -11 21 -17 26 -15 4
3 10 1 14 -5 4 -6 -4 -9 -19 -8 -15 1 -26 8 -26 14 0 14 -28 27 -40 19 -5 -3
-11 -1 -15 5 -4 6 -12 4 -22 -5 -14 -14 -17 -14 -33 2 -16 17 -15 18 14 23 20
3 27 8 19 13 -7 5 -18 5 -25 1 -8 -5 -9 -2 -5 9 4 11 1 17 -9 17 -8 0 -13 -4
-10 -8 3 -5 -15 -13 -39 -19 -34 -8 -45 -7 -45 2 0 8 -14 11 -42 9 -24 -1 -45
-3 -48 -4 -3 -1 -8 -2 -12 -1 -5 0 -8 -5 -8 -13 0 -8 -8 -17 -17 -19 -16 -4
-16 -5 -1 -6 9 0 23 6 31 14 11 10 23 12 43 6 16 -4 48 -7 72 -5 30 1 42 -2
42 -12 0 -8 5 -14 11 -14 5 0 7 -4 4 -10 -4 -6 -16 -3 -31 7 -20 13 -24 13
-22 2 2 -8 12 -18 23 -23 27 -11 85 -15 79 -4 -3 4 -1 8 5 8 5 0 13 -5 16 -10
4 -6 14 -10 23 -9 10 2 33 -7 52 -19 19 -12 40 -23 45 -25 6 -2 5 -21 -3 -51
-10 -37 -10 -52 -1 -62 7 -8 9 -17 6 -21 -4 -3 -2 -14 4 -24 7 -15 6 -19 -6
-19 -15 0 -20 -16 -16 -57 3 -38 -16 -26 -23 15 -4 28 -2 40 11 50 15 11 15
12 -3 12 -16 0 -17 2 -4 10 10 6 11 10 3 10 -7 0 -12 5 -10 11 1 6 -8 13 -20
15 -20 3 -21 0 -17 -34 4 -34 4 -35 -7 -12 -6 14 -15 33 -20 43 -7 14 -5 17
12 17 18 0 19 2 9 15 -10 12 -9 15 6 15 16 0 16 2 4 10 -9 6 -17 5 -21 -1 -8
-13 -78 -19 -85 -8 -3 5 2 9 11 9 9 0 13 5 10 10 -3 6 2 10 11 10 10 0 14 3
11 7 -4 3 -17 2 -30 -4 -12 -6 -33 -15 -47 -21 -18 -8 -20 -11 -7 -11 9 -1 17
-8 17 -16 0 -17 -16 -20 -25 -5 -4 6 -16 8 -28 5 -17 -5 -19 -4 -7 4 19 13 10
22 -17 15 -15 -4 -19 -11 -16 -27 5 -21 5 -21 -12 -5 -10 9 -18 27 -19 40 -1
17 -6 22 -21 20 -11 -2 -21 -8 -23 -13 -7 -18 -31 -8 -34 14 -2 12 -9 21 -16
19 -9 -2 -11 4 -7 18 7 22 -5 26 -35 10 -13 -7 -19 -6 -24 6 -10 25 -31 10
-36 -25 -6 -35 -25 -43 -25 -9 0 12 -6 23 -14 26 -10 3 -12 0 -8 -12 8 -19 6
-20 -27 -3 -14 8 -23 17 -19 20 3 4 -6 18 -20 31 -28 26 -35 46 -16 46 6 0 1
9 -12 20 l-24 19 25 2 c22 1 21 2 -8 10 -18 5 -30 14 -27 19 3 5 -20 7 -52 5
-32 -2 -64 1 -71 8 -10 8 -12 7 -10 -3 2 -10 -7 -14 -32 -13 -19 1 -27 -1 -17
-3 24 -8 21 -23 -7 -30 -14 -3 -31 -20 -41 -42 -10 -20 -23 -46 -28 -57 -7
-12 -12 -109 -13 -240 -1 -121 -4 -230 -7 -242 -3 -12 -2 -36 3 -52 10 -36 4
-44 -24 -30 -14 7 -12 2 8 -14 27 -23 27 -25 10 -36 -17 -9 -17 -10 -1 -11 9
0 17 -4 17 -9 0 -4 -12 -7 -27 -5 l-28 4 28 -11 c17 -7 27 -18 27 -30 0 -11
-4 -17 -10 -14 -5 3 -10 1 -10 -4 0 -6 6 -11 13 -11 9 0 8 -3 -2 -9 -9 -6 -10
-11 -2 -15 15 -10 4 -26 -14 -20 -7 3 -11 12 -8 20 3 10 -5 16 -27 20 -18 4
-27 10 -20 14 8 5 6 11 -5 20 -8 7 -15 17 -15 23 0 6 14 -2 30 -18 17 -16 30
-23 30 -16 0 6 -12 23 -27 37 -29 27 -28 29 7 43 l25 10 -27 0 c-25 1 -28 4
-28 39 0 20 -3 54 -7 75 l-6 38 37 -6 c23 -5 36 -3 36 3 0 6 -15 12 -32 14
-28 2 -34 8 -36 31 -3 26 -2 27 43 27 28 0 44 4 40 10 -4 6 -23 7 -45 4 l-38
-6 3 72 c3 46 9 76 17 81 8 6 9 9 2 9 -22 0 -23 30 -2 50 18 17 19 20 5 20
-13 0 -17 9 -17 34 0 18 -7 39 -15 46 -10 8 -12 17 -6 24 6 7 -2 17 -25 29
l-35 17 7 -35 c4 -23 2 -35 -5 -35 -6 0 -11 5 -11 11 0 5 -4 7 -10 4 -5 -3
-10 -40 -10 -81 0 -47 -4 -74 -11 -74 -6 0 -9 7 -5 15 4 11 -1 15 -19 15 -14
0 -25 6 -26 13 -3 33 4 73 15 79 8 6 8 8 -1 8 -17 0 -20 37 -7 106 l11 62 -27
-8 c-15 -4 -40 -16 -56 -26 -15 -11 -29 -18 -31 -16 -2 1 -11 2 -20 1 -11 0
-13 -3 -5 -6 22 -9 12 -32 -15 -35 -22 -2 -28 -8 -26 -26 2 -19 -1 -21 -22
-16 -23 6 -25 3 -25 -25 0 -24 -4 -31 -19 -31 -10 0 -24 7 -31 15 -18 22 -30
18 -30 -10 0 -26 -15 -34 -23 -12 -3 6 -6 -1 -6 -18 -2 -37 -15 -62 -26 -46
-4 7 -4 18 -1 26 3 8 1 15 -3 15 -5 0 -11 -7 -15 -15 -3 -8 -10 -15 -15 -15
-6 0 -7 8 -4 17 5 12 2 15 -10 10 -10 -4 -16 -2 -14 6 1 7 -5 12 -13 12 -9 0
-17 -12 -20 -29 -3 -16 -12 -32 -20 -35 -8 -3 -16 -19 -18 -34 -3 -33 -30 -67
-52 -67 -12 0 -12 -2 -2 -9 8 -4 12 -17 11 -27 -4 -21 1 -24 31 -24 11 0 20 7
20 15 0 8 5 15 10 15 6 0 10 -11 10 -24 0 -19 4 -23 21 -19 11 3 34 -1 52 -10
18 -9 40 -18 50 -21 9 -3 17 -10 17 -15 0 -6 -7 -7 -17 -4 -11 4 -14 3 -9 -5
4 -7 15 -12 25 -12 10 0 24 -6 30 -14 13 -16 2 -16 -32 -1 -28 12 -29 1 -2
-25 14 -13 25 -18 25 -12 0 7 5 12 10 12 6 0 10 -7 10 -15 0 -23 -38 -18 -66
10 -44 44 -75 55 -123 43 -35 -9 -45 -17 -62 -52 -17 -38 -22 -41 -55 -40 -19
1 -44 10 -54 19 -10 9 -23 14 -28 11 -4 -3 -16 4 -25 15 -16 18 -16 19 4 19
11 0 17 -4 14 -10 -4 -6 20 -10 67 -9 40 1 65 3 56 6 -10 2 -18 9 -18 14 0 5
-5 9 -11 9 -5 0 -7 -4 -4 -10 4 -6 -6 -10 -22 -9 -15 0 -22 3 -15 6 15 6 6 23
-14 23 -8 0 -14 -7 -14 -16 0 -14 -2 -13 -17 1 -12 13 -28 16 -59 12 -24 -2
-54 1 -66 7 -13 7 -41 13 -62 14 -22 2 -43 5 -48 8 -4 3 -8 -1 -8 -9 0 -23
-33 -31 -46 -12 -7 9 -16 17 -21 17 -18 1 -45 27 -38 37 3 6 -2 11 -13 11 -19
0 -80 56 -70 65 2 3 18 -9 33 -27 18 -20 30 -27 33 -20 3 10 7 10 20 0 16 -12
16 -11 0 12 -9 15 -24 24 -34 22 -14 -2 -15 0 -6 6 10 7 5 16 -19 40 l-32 31
38 -6 38 -6 -16 24 c-19 26 -22 49 -7 49 6 0 10 -6 10 -14 0 -7 6 -19 14 -26
8 -6 12 -18 9 -26 -3 -8 1 -14 8 -14 7 0 26 -12 41 -27 16 -15 28 -21 28 -14
0 8 6 11 15 7 8 -3 15 -1 15 4 0 6 -4 10 -9 10 -14 0 -21 28 -12 51 7 20 9 19
29 -15 12 -21 22 -41 22 -46 0 -4 6 -11 13 -13 9 -4 8 -8 -3 -16 -12 -8 -12
-11 3 -17 26 -9 32 2 18 32 -9 20 -9 30 0 40 13 15 55 12 52 -4 -4 -15 40 -28
45 -13 4 13 32 15 32 2 0 -5 7 -11 14 -14 10 -4 13 -1 9 9 -3 7 0 14 6 14 6 0
11 -5 11 -10 0 -6 6 -5 14 2 10 10 11 16 3 27 -7 8 -13 9 -15 3 -2 -7 -14 -7
-35 -1 -20 6 -33 5 -35 0 -2 -6 -13 -6 -29 0 -13 5 -29 7 -34 3 -5 -3 -9 -1
-9 5 0 5 6 14 14 18 8 4 16 19 18 33 6 40 25 66 58 80 16 7 30 19 30 26 0 8 6
14 13 14 7 0 31 15 53 33 21 19 62 42 89 52 28 11 53 23 56 28 4 5 12 7 18 3
7 -5 9 -1 5 9 -4 9 -3 15 2 14 21 -4 97 4 82 8 -10 2 -18 9 -18 14 0 5 -6 9
-14 9 -20 0 -26 12 -19 38 3 12 13 22 22 22 12 0 13 2 3 8 -10 7 -9 16 3 44 8
20 18 38 22 40 5 3 3 4 -3 2 -6 -1 -16 8 -23 22 -10 23 1 35 14 14 4 -6 11 -7
17 -4 7 5 3 10 -10 15 -12 5 -22 15 -22 23 0 10 -6 13 -15 10 -8 -4 -15 -1
-15 6 0 8 10 10 34 6 18 -4 42 -3 52 1 13 6 3 10 -36 13 -71 7 -89 -4 -59 -37
l22 -23 -22 0 c-12 0 -31 5 -42 10 -11 6 -18 7 -17 3 3 -9 -5 -13 -27 -13 -8
0 -15 7 -15 15 0 12 -21 19 -50 17 -3 0 -17 8 -30 18 -19 14 -22 22 -13 31 9
9 16 8 33 -4 15 -11 18 -16 8 -20 -7 -3 -3 -6 9 -6 20 -1 20 1 10 29 -12 32
-37 39 -57 16 -6 -8 -18 -12 -26 -9 -24 9 -16 -15 11 -33 31 -20 24 -33 -18
-33 -18 -1 -46 -1 -63 -1 -25 0 -37 -8 -58 -40 -14 -22 -29 -40 -31 -40 -3 0
-16 7 -29 16 -16 10 -26 12 -31 5 -14 -24 -23 -9 -9 17 7 15 14 37 14 49 0 30
17 73 29 73 5 0 16 -7 25 -15 20 -21 25 -19 18 7 -3 14 -1 19 6 14 12 -7 58
12 49 20 -2 3 -23 0 -46 -5 -40 -9 -42 -8 -27 8 9 10 13 21 9 24 -3 4 -1 7 5
7 6 0 14 9 17 20 4 11 15 20 26 20 13 0 18 4 13 12 -5 7 -3 8 6 3 7 -4 15 -2
19 4 6 8 15 9 33 2 23 -9 25 -7 21 10 -5 18 -3 19 22 7 22 -10 24 -14 12 -23
-7 -5 -12 -14 -10 -20 1 -5 -8 -10 -21 -10 -13 0 -22 3 -20 6 2 4 -2 9 -9 12
-10 4 -13 -2 -9 -21 4 -22 2 -24 -14 -17 -37 15 -67 18 -60 6 4 -6 14 -11 22
-11 8 0 14 -4 14 -10 0 -6 9 -6 26 0 14 6 30 7 36 4 6 -4 14 0 19 7 8 12 11
12 19 -1 7 -11 4 -17 -13 -22 -14 -4 -7 -6 20 -5 46 2 51 7 28 31 -17 16 -20
30 -5 21 6 -4 7 1 3 11 -5 14 -2 16 18 11 96 -22 113 -20 59 8 -32 17 -41 45
-13 45 9 0 13 -3 10 -7 -9 -9 22 -43 40 -43 7 0 13 -4 13 -10 0 -5 10 -10 23
-9 l22 0 -22 11 c-25 12 -30 37 -11 56 13 13 32 16 24 4 -2 -4 4 -8 15 -8 25
0 24 11 -2 30 -20 13 -18 43 1 31 5 -3 11 -1 15 5 3 5 1 10 -4 10 -6 0 -3 9 6
20 22 26 53 25 97 -1 46 -27 46 -33 1 -15 -19 8 -35 11 -35 5 0 -15 50 -30
109 -33 38 -2 58 -8 67 -20 7 -10 18 -15 23 -11 6 3 14 0 16 -8 3 -7 21 -20
40 -27 19 -8 35 -17 35 -20 0 -3 -27 -6 -60 -5 -62 1 -79 -8 -34 -19 14 -4 24
-12 21 -19 -4 -12 -12 -12 -79 -1 -24 4 -38 2 -38 -4 0 -7 -9 -8 -27 -2 -52
16 -83 20 -83 11 0 -5 8 -11 18 -15 9 -3 25 -11 34 -18 14 -10 24 -10 48 -1
26 10 32 9 40 -7 13 -25 13 -33 -2 -24 -18 11 -68 15 -68 6 0 -5 18 -15 40
-22 31 -10 46 -11 65 -2 14 7 37 12 50 12 14 0 25 5 25 10 0 6 9 10 19 10 22
0 37 29 18 34 -39 12 -47 16 -47 27 0 7 12 9 33 6 20 -3 38 1 49 10 14 12 23
13 49 4 40 -14 52 -14 44 -1 -8 13 16 13 52 0 l28 -10 -22 19 c-12 10 -20 21
-18 23 8 8 65 -4 65 -13 0 -5 -8 -5 -17 -2 -16 6 -16 5 -5 -10 19 -23 45 -11
31 15 -13 25 -49 38 -69 26 -11 -7 -27 -4 -53 11 -21 12 -50 21 -66 21 -19 0
-45 14 -77 42 -31 26 -39 31 -21 12 15 -17 27 -35 27 -40 0 -9 102 -45 134
-48 5 -1 11 -6 13 -12 6 -17 -48 -14 -54 2 -7 19 -23 18 -23 -1 0 -20 -12 -19
-38 5 -26 25 -36 26 -28 3 4 -10 -13 3 -37 30 -24 26 -51 47 -60 47 -10 0 -17
7 -17 15 0 9 -7 18 -15 21 -8 4 -15 13 -15 21 0 8 -4 12 -9 8 -5 -3 -16 3 -23
13 -7 10 -24 21 -37 25 l-23 6 21 -20 c26 -24 26 -29 3 -23 -19 6 -57 62 -53
82 3 20 -9 14 -19 -10 l-9 -23 -7 23 c-7 23 -34 31 -34 10 0 -21 -24 9 -25 33
-2 18 3 20 37 17 21 -2 38 -2 38 -1 0 8 -58 25 -83 25 -38 -1 -30 22 9 25 16
1 41 5 57 9 18 4 27 2 27 -6 0 -7 -8 -9 -20 -5 -11 4 -20 2 -20 -4 0 -11 5
-12 62 -16 14 -1 42 -11 62 -23 20 -12 38 -17 41 -11 4 5 1 9 -5 9 -6 0 -8 5
-4 12 5 7 2 9 -7 6 -24 -9 -59 10 -59 32 0 14 -4 19 -12 14 -7 -4 -8 -3 -4 4
7 12 40 11 53 -1 3 -4 -2 -14 -13 -22 -18 -14 -18 -15 3 -12 11 2 29 9 39 17
16 13 17 13 12 0 -7 -18 40 -24 60 -8 9 8 11 7 7 -3 -4 -11 7 -13 57 -9 49 3
55 5 25 8 -21 2 -47 12 -58 23 -15 15 -28 19 -50 14 -17 -4 -29 -2 -29 4 0 21
65 16 103 -8 20 -13 40 -21 44 -17 3 3 1 6 -5 6 -7 0 -12 5 -12 10 0 6 6 10
13 9 24 -3 37 1 37 11 0 6 -6 10 -12 9 -44 -5 -67 2 -65 21 1 13 5 16 11 10
13 -13 86 -13 86 0 0 6 -4 10 -10 10 -5 0 -10 5 -10 11 0 8 4 8 13 1 14 -12
56 -10 77 3 9 5 11 4 6 -3 -9 -15 -6 -15 36 2 19 8 46 13 59 10 14 -3 19 -2
13 3 -6 4 -13 15 -16 24 -4 9 -21 19 -38 22 -17 4 -30 12 -28 18 4 13 24 11
21 -2 -5 -15 20 -10 54 11 18 11 40 17 48 14 11 -5 13 -2 9 10 -3 9 -1 16 5
16 6 0 11 -7 11 -15 0 -8 5 -15 10 -15 6 0 10 6 8 13 -4 17 32 67 48 67 8 0
14 -3 14 -8z m-481 -21 c9 -6 10 -11 2 -15 -13 -8 -31 1 -31 15 0 11 11 11 29
0z m126 -33 c21 -9 35 -28 20 -28 -12 0 -55 24 -55 32 0 11 4 10 35 -4z m125
-17 c0 -16 -31 -21 -36 -6 -4 8 -14 15 -23 16 -12 0 -11 2 4 8 21 9 55 -3 55
-18z m-418 4 c0 -5 -5 -11 -11 -13 -6 -2 -11 4 -11 13 0 9 5 15 11 13 6 -2 11
-8 11 -13z m238 -6 c0 -10 -66 -6 -76 4 -4 4 11 6 34 5 23 -1 42 -5 42 -9z
m140 -19 c0 -5 5 -10 10 -10 6 0 20 -9 32 -20 19 -17 19 -20 5 -20 -9 0 -17 5
-17 10 0 6 -19 20 -42 30 -39 18 -40 20 -15 20 15 0 27 -4 27 -10z m-370 -15
c10 -12 10 -15 -4 -15 -9 0 -16 7 -16 15 0 8 2 15 4 15 2 0 9 -7 16 -15z m260
3 c10 3 12 1 5 -6 -5 -6 -23 -12 -40 -14 -22 -2 -31 2 -33 14 -3 14 1 16 25 9
15 -4 35 -6 43 -3z m-363 -5 c-32 -8 -11 -28 37 -35 60 -8 76 -14 76 -28 0 -6
-5 -8 -12 -3 -22 13 -50 14 -65 2 -11 -10 -12 -9 -7 5 4 10 1 16 -8 16 -18 0
-68 23 -68 32 0 7 27 16 50 16 9 0 8 -2 -3 -5z m53 -3 c13 -8 13 -10 -2 -10
-9 0 -20 5 -23 10 -8 13 5 13 25 0z m180 -25 c13 -14 19 -25 12 -25 -6 0 -12
5 -12 10 0 6 -6 10 -14 10 -8 0 -21 6 -28 14 -8 8 -21 16 -29 19 -8 2 0 3 16
0 17 -2 41 -15 55 -28z m190 20 c7 -8 8 -15 2 -15 -5 0 -15 7 -22 15 -7 8 -8
15 -2 15 5 0 15 -7 22 -15z m294 -4 c3 -4 3 -10 0 -13 -7 -8 -54 3 -54 13 0
12 47 12 54 0z m-513 -55 c4 -5 23 -6 43 -3 26 4 36 2 36 -8 0 -15 -27 -28
-34 -16 -3 5 -17 6 -31 3 -19 -3 -24 -9 -20 -22 3 -10 0 -20 -9 -23 -20 -8
-28 3 -15 20 6 7 8 13 3 13 -5 0 -2 5 6 10 13 9 11 14 -12 31 -16 11 -28 25
-28 30 0 10 50 -19 61 -35z m825 23 c3 -6 2 -15 -2 -19 -12 -12 -38 5 -30 19
9 14 23 14 32 0z m-658 -4 c-11 -11 -60 -16 -53 -5 3 5 18 10 32 10 15 0 24
-2 21 -5z m-331 -68 c17 -20 17 -20 0 -14 -10 4 -23 7 -28 7 -6 0 -7 5 -4 10
4 6 -8 10 -30 10 -20 0 -34 4 -31 8 9 15 75 0 93 -21z m648 23 c4 -6 11 -8 16
-5 5 4 9 -3 9 -14 0 -12 -5 -21 -11 -21 -5 0 -7 5 -4 10 4 6 -7 10 -24 10 -21
0 -31 5 -31 15 0 17 35 21 45 5z m-818 -30 c2 -17 0 -18 -17 -3 -20 18 -18 35
3 27 7 -2 13 -13 14 -24z m278 20 c15 -6 6 -9 -33 -9 -33 -1 -51 3 -47 9 7 12
52 12 80 0z m-250 -10 c3 -5 1 -10 -4 -10 -6 0 -11 5 -11 10 0 6 2 10 4 10 3
0 8 -4 11 -10z m30 -20 c-3 -5 1 -10 9 -10 9 0 16 -5 16 -11 0 -7 -9 -9 -22
-5 -13 3 -27 6 -32 6 -5 0 -3 7 4 15 14 17 35 21 25 5z m-47 -42 c20 -12 45
-22 56 -23 10 0 21 -5 23 -11 2 -6 -17 -11 -49 -12 -48 -2 -51 -1 -34 12 17
14 16 15 -16 21 -18 4 -38 6 -43 5 -21 -5 -25 1 -13 15 18 20 35 18 76 -7z
m222 1 c0 -5 -4 -9 -10 -9 -5 0 -10 7 -10 16 0 8 5 12 10 9 6 -3 10 -10 10
-16z m610 -7 c0 -9 -6 -12 -16 -8 -9 3 -20 6 -25 6 -6 0 -8 4 -4 9 8 15 45 9
45 -7z m-906 -40 c9 -14 -10 -33 -27 -26 -20 7 -22 20 -4 27 19 8 25 8 31 -1z
m1710 -11 c7 -11 -22 -23 -35 -15 -5 3 -9 9 -9 15 0 12 37 12 44 0z m-1314
-181 c0 -13 -11 -13 -30 0 -12 8 -11 10 8 10 12 0 22 -4 22 -10z m1244 -114
c15 6 42 -23 32 -33 -3 -4 -12 -1 -18 5 -7 7 -20 12 -30 12 -12 0 -15 5 -11
17 4 10 8 12 10 6 3 -7 10 -10 17 -7z m-93 -25 c13 -11 21 -22 17 -26 -8 -8
-58 23 -58 36 0 14 16 10 41 -10z m84 -15 c37 -9 55 -24 55 -45 -1 -14 -2 -14
-13 0 -12 15 -43 32 -62 34 -16 1 -35 15 -35 27 0 7 4 7 13 1 6 -6 25 -13 42
-17z m-1152 -30 c20 2 37 0 37 -5 0 -13 -30 -22 -51 -16 -11 4 -19 2 -19 -4 0
-6 -5 -11 -11 -11 -5 0 -8 4 -4 9 3 5 1 12 -5 16 -5 3 -10 11 -10 17 0 7 4 7
13 0 7 -6 30 -9 50 -6z m1167 -18 c0 -6 -6 -5 -15 2 -8 7 -15 14 -15 16 0 2 7
1 15 -2 8 -4 15 -11 15 -16z m-35 -28 c3 -5 2 -10 -4 -10 -5 0 -13 5 -16 10
-3 6 -2 10 4 10 5 0 13 -4 16 -10z m78 -12 c8 -30 5 -30 -16 -2 -14 19 -15 24
-4 24 8 0 17 -10 20 -22z m-1733 -88 c0 -5 -4 -10 -9 -10 -6 0 -13 5 -16 10
-3 6 1 10 9 10 9 0 16 -4 16 -10z m209 -19 c0 -3 -3 -13 -7 -21 -6 -14 -9 -14
-24 2 -16 15 -16 18 -2 18 8 0 12 4 9 10 -3 6 1 7 9 4 9 -3 16 -9 15 -13z m25
-23 c-3 -4 -9 -8 -15 -8 -5 0 -9 4 -9 8 0 5 7 9 15 9 8 0 12 -4 9 -9z m1056
-2 c0 -9 -8 -12 -26 -8 -19 3 -22 7 -12 13 20 13 38 11 38 -5z m626 -265 c-12
-19 -24 -12 -19 10 4 13 9 17 15 11 6 -6 7 -15 4 -21z m-362 -127 c9 -24 7
-28 -9 -14 -17 14 -20 30 -6 30 5 0 12 -7 15 -16z m186 -14 c0 -5 -4 -10 -10
-10 -5 0 -10 5 -10 10 0 6 5 10 10 10 6 0 10 -4 10 -10z m-2131 -70 c11 -22 9
-21 -13 5 -14 17 -26 39 -26 50 0 21 4 16 39 -55z m1078 -5 c9 -25 -4 -29 -17
-6 -7 15 -7 21 0 21 6 0 13 -7 17 -15z m3 -39 c0 -11 -19 -15 -25 -6 -3 5 1
10 9 10 9 0 16 -2 16 -4z m-1085 -176 c3 -5 1 -10 -6 -10 -7 0 1 -11 17 -25
16 -14 32 -25 37 -25 4 0 7 -7 7 -15 0 -9 -9 -15 -23 -15 -13 0 -32 -9 -42
-20 -18 -19 -17 -20 3 -20 13 0 22 6 22 15 0 34 90 4 98 -33 3 -15 -23 -16
-48 0 -14 9 -29 10 -60 2 -38 -11 -40 -10 -40 12 0 13 6 24 13 24 9 0 8 3 -2
9 -8 5 -10 14 -5 22 4 7 7 30 5 51 -2 36 10 50 24 28z m265 -21 c0 -18 22 -25
73 -21 9 1 17 -5 17 -13 0 -11 11 -15 38 -16 29 0 33 -2 17 -8 -25 -10 -87 -2
-79 10 3 5 -4 9 -16 9 -14 0 -19 -4 -14 -12 6 -10 4 -10 -7 0 -19 18 -34 15
-18 -5 13 -15 11 -16 -23 -9 -24 4 -38 3 -38 -4 0 -6 30 -10 77 -10 81 0 92
-6 27 -15 -54 -8 -74 -15 -74 -25 0 -14 39 -18 50 -5 8 10 32 12 88 9 42 -3
98 -4 125 -4 26 1 47 -3 47 -9 0 -5 -18 -7 -40 -4 -25 4 -40 2 -40 -5 0 -6 27
-11 63 -12 34 -1 79 -3 100 -4 21 -2 40 1 43 6 3 4 14 3 25 -2 11 -7 19 -7 19
-1 0 5 -5 11 -12 13 -9 3 -9 6 -1 11 6 4 19 0 27 -9 9 -8 16 -11 16 -5 0 6 7
11 16 11 8 0 12 5 9 10 -3 6 -16 10 -28 10 -18 0 -19 2 -7 10 8 5 27 10 42 10
15 0 30 5 33 11 4 6 19 7 37 4 21 -5 28 -4 24 4 -4 6 -12 9 -17 6 -5 -4 -9 -1
-9 4 0 16 66 40 90 34 12 -3 19 -11 16 -18 -5 -15 17 -36 58 -54 24 -10 27
-14 15 -21 -7 -5 -21 -8 -29 -6 -8 3 -25 7 -38 11 -18 5 -12 -4 25 -41 47 -48
47 -48 23 -55 -14 -3 -33 -2 -42 3 -28 14 -42 10 -28 -7 16 -19 0 -19 -26 0
-23 17 -34 19 -34 5 0 -5 7 -10 15 -10 18 0 20 -16 3 -23 -10 -4 -9 -8 2 -16
13 -9 13 -11 -2 -11 -10 0 -18 5 -18 10 0 6 -15 10 -32 11 -18 0 -27 3 -20 6
25 10 10 23 -28 23 -33 0 -38 -3 -33 -17 6 -17 5 -17 -14 0 -20 17 -62 20
-118 8 -25 -5 -27 -8 -12 -14 11 -4 23 -4 28 -1 6 3 22 2 37 -2 26 -7 25 -7
-13 -14 -32 -6 -46 -4 -69 13 -24 17 -28 18 -23 5 5 -14 0 -16 -29 -11 -33 5
-36 4 -32 -17 1 -13 9 -25 17 -28 10 -3 11 2 6 18 -6 17 -4 21 6 14 8 -4 20
-9 29 -10 8 -1 39 -5 68 -9 33 -5 52 -4 52 3 0 11 44 22 58 13 5 -3 13 -21 17
-38 6 -28 4 -32 -10 -27 -11 5 -18 0 -22 -14 -3 -13 -10 -19 -19 -15 -10 4
-14 -4 -14 -28 -1 -30 -2 -32 -14 -16 -19 25 -34 21 -28 -8 3 -18 0 -25 -12
-25 -9 0 -16 -5 -16 -11 0 -5 -5 -7 -10 -4 -6 3 -15 -6 -20 -21 -10 -26 -11
-26 -30 -9 -23 21 -22 22 -45 -28 -12 -25 -23 -36 -32 -33 -10 4 -13 1 -8 -13
5 -17 -1 -20 -60 -23 -72 -3 -85 -1 -85 14 0 5 9 6 21 3 18 -6 19 -5 7 14 -7
12 -20 21 -28 21 -13 0 -13 -1 0 -10 13 -8 13 -10 -2 -10 -11 0 -15 -5 -12
-15 8 -19 -19 -20 -35 -1 -15 18 -82 10 -94 -11 -4 -7 -15 -13 -24 -13 -9 0
-13 -3 -10 -7 4 -3 35 -5 68 -4 38 2 59 -1 55 -7 -8 -14 18 -22 35 -11 11 7
11 9 -3 9 -10 0 -18 5 -18 10 0 6 14 10 30 10 20 0 30 -5 30 -15 0 -8 7 -15
15 -15 8 0 12 6 9 13 -4 11 9 13 58 11 39 -1 71 3 84 11 16 11 30 11 75 1 36
-9 67 -10 94 -4 22 5 54 7 70 4 29 -5 29 -5 10 10 -11 8 -28 13 -38 10 -9 -2
-15 0 -11 5 3 5 -1 9 -10 9 -8 0 -16 5 -18 12 -3 8 -11 7 -29 -6 l-24 -17 28
7 c17 4 27 2 27 -5 0 -6 -17 -11 -40 -11 -22 0 -40 2 -40 4 0 2 -3 11 -6 20
-4 12 0 16 15 16 12 0 21 4 21 8 0 8 5 9 94 17 32 2 73 9 90 14 73 23 132 23
172 2 54 -28 71 -43 71 -62 0 -12 -9 -16 -31 -14 -43 2 -90 16 -98 29 -5 7 -8
4 -8 -6 0 -10 -5 -18 -11 -18 -6 0 -3 -7 5 -15 12 -13 32 -15 95 -11 77 5 81
4 101 -21 11 -14 20 -33 20 -42 0 -10 6 -23 13 -30 10 -10 8 -15 -7 -27 -27
-19 -37 -18 -43 6 -3 11 -12 20 -20 20 -8 0 -11 5 -8 10 3 6 -2 10 -12 10 -13
0 -19 -7 -18 -24 0 -13 3 -28 8 -32 12 -12 8 -24 -9 -24 -9 0 -22 6 -28 14 -6
8 -22 17 -36 20 -22 5 -21 4 5 -10 l30 -15 -49 5 c-40 5 -47 3 -42 -9 7 -19
-1 -19 -20 0 -8 8 -20 12 -27 10 -52 -15 -76 -13 -103 10 -16 14 -32 25 -36
25 -5 0 -8 5 -8 10 0 18 28 11 58 -15 33 -28 51 -33 32 -10 -11 13 -7 15 26
15 44 0 70 13 60 29 -4 6 0 11 8 11 13 0 12 4 -4 20 -11 11 -31 20 -45 20 -14
0 -25 5 -25 11 0 6 7 9 15 5 8 -3 15 -1 15 3 0 5 10 7 23 4 21 -4 21 -4 3 11
-16 13 -21 13 -42 0 -12 -9 -25 -15 -28 -15 -35 5 -38 -1 -11 -19 l30 -20 -36
0 c-41 0 -129 -28 -129 -41 0 -5 8 -9 19 -9 10 0 23 -6 27 -12 11 -16 12 -54
1 -50 -4 1 -11 2 -17 2 -5 0 -10 6 -10 14 0 7 -9 16 -20 19 -23 6 -27 -8 -5
-17 8 -3 15 -12 15 -21 0 -8 6 -15 14 -15 19 0 46 -38 39 -56 -5 -13 8 -19 31
-15 5 1 17 -6 27 -15 15 -14 17 -20 6 -32 -9 -12 -9 -16 0 -19 7 -2 9 -11 6
-19 -3 -8 3 -17 12 -21 17 -6 17 -7 -1 -20 -10 -7 -28 -13 -41 -13 -13 0 -23
-5 -23 -10 0 -7 -6 -7 -19 0 -11 5 -32 10 -47 10 -23 0 -25 2 -14 15 11 13 10
14 -3 10 -8 -4 -18 -2 -22 4 -3 6 -17 11 -29 11 -24 0 -48 20 -45 36 1 5 -4
23 -11 39 l-13 30 -9 -32 c-5 -18 -13 -33 -17 -33 -17 0 -91 44 -92 54 -2 19
-5 31 -11 46 -3 8 -9 23 -12 33 -3 10 -15 17 -31 17 -14 0 -25 5 -25 10 0 6
-4 10 -10 10 -6 0 -6 -9 -1 -22 6 -15 16 -22 30 -21 13 2 21 -3 21 -12 0 -8
-8 -15 -17 -15 -16 -1 -16 -2 2 -16 14 -11 16 -18 8 -21 -17 -6 1 -40 34 -66
35 -28 30 -47 -10 -37 -37 8 -179 -11 -161 -22 6 -4 24 -5 40 -1 62 12 144 8
154 -7 16 -25 11 -32 -12 -16 -25 18 -58 21 -58 7 0 -5 6 -12 13 -14 6 -3 -26
-6 -73 -6 -47 0 -94 -1 -105 -2 -36 -1 -137 9 -143 15 -3 3 0 6 6 6 25 0 10
26 -15 27 -16 1 -23 -1 -16 -3 7 -3 9 -12 6 -19 -3 -10 -10 -12 -21 -6 -10 4
-23 6 -29 4 -7 -3 -13 2 -13 11 0 10 -6 13 -16 9 -13 -5 -13 -7 -2 -14 10 -7
9 -9 -4 -9 -10 0 -18 -5 -18 -11 0 -6 8 -8 18 -4 20 6 76 -18 66 -28 -3 -3
-17 -1 -31 4 -32 12 -41 4 -25 -22 12 -18 11 -19 -7 -10 -28 15 -40 13 -18 -3
17 -13 17 -14 0 -17 -36 -8 -128 -4 -133 6 -3 6 5 11 17 13 19 3 21 6 10 22
-9 16 -8 22 7 33 11 8 29 12 40 9 17 -5 19 -3 9 9 -15 18 8 54 24 38 8 -8 13
-7 17 0 4 6 2 11 -3 11 -6 0 -11 7 -11 15 0 21 27 19 67 -6 19 -12 37 -18 41
-15 3 4 -4 9 -16 13 -12 3 -22 9 -22 13 0 4 -12 11 -27 15 -24 6 -25 8 -11 16
10 5 37 7 60 5 24 -3 50 -1 58 4 11 7 1 10 -32 10 -27 0 -48 4 -48 9 0 11 30
36 30 25 0 -5 7 -1 14 9 11 15 22 17 56 12 33 -5 40 -4 34 7 -5 7 -9 20 -9 28
0 8 -8 16 -18 18 -10 2 -16 -1 -15 -6 3 -10 -1 -12 -27 -12 -21 0 -19 18 3 22
15 3 14 6 -5 16 -18 10 -27 10 -44 0 -18 -11 -23 -10 -36 10 -9 12 -24 22 -34
22 -10 0 -21 5 -24 10 -3 6 -15 10 -27 10 -34 0 -2 -28 35 -32 22 -2 35 -10
42 -25 11 -26 25 -29 43 -11 9 9 12 7 12 -11 0 -16 -4 -21 -14 -18 -8 3 -17 3
-21 -1 -3 -3 -23 -5 -43 -4 -33 2 -35 1 -19 -11 14 -12 15 -16 3 -26 -7 -6
-21 -9 -30 -5 -11 4 -16 1 -16 -11 0 -9 -4 -13 -10 -10 -5 3 -10 1 -10 -5 0
-13 -31 -9 -43 5 -5 6 -6 0 -2 -11 6 -23 -19 -42 -30 -24 -4 6 -12 10 -18 10
-9 0 -9 -2 -1 -8 6 -4 14 -18 18 -32 4 -14 4 -20 -1 -15 -4 6 -18 12 -30 12
-17 1 -20 -2 -16 -15 6 -15 5 -15 -11 -3 -14 12 -19 12 -26 2 -6 -11 -12 -11
-30 2 -12 8 -29 13 -37 10 -11 -4 -5 -11 18 -22 l34 -15 -39 -4 c-24 -2 -42 1
-47 9 -5 8 -31 14 -66 15 -80 3 -134 12 -151 27 -13 10 -14 8 -7 -13 l7 -25
-22 23 c-12 13 -24 21 -27 18 -2 -2 5 -14 16 -25 21 -21 51 -28 51 -12 0 4 20
4 45 -2 26 -6 45 -16 45 -24 0 -14 -32 -18 -44 -6 -10 11 -37 12 -30 2 3 -5 0
-9 -5 -9 -6 0 -11 -7 -11 -16 0 -11 6 -14 20 -9 15 5 18 3 14 -9 -5 -12 -2
-15 12 -10 15 5 16 4 5 -4 -10 -7 -28 -6 -59 3 -51 16 -64 25 -34 25 11 0 23
4 27 9 7 13 -15 26 -24 14 -3 -5 -14 -12 -23 -16 -40 -14 -3 -57 48 -57 21 0
33 -4 29 -10 -4 -6 -11 -8 -16 -5 -5 4 -9 1 -9 -5 0 -10 -53 -6 -71 6 -5 3
-17 1 -27 -5 -21 -11 -35 -4 -51 28 -13 23 -12 23 28 19 l40 -3 -21 22 c-12
13 -30 23 -40 23 -27 0 -12 20 15 21 l22 0 -21 9 c-35 14 -40 32 -8 24 l28 -7
-18 28 -18 28 26 -5 c15 -3 29 -1 32 3 3 5 -2 9 -10 9 -10 0 -13 6 -10 15 8
19 28 19 48 0 8 -8 25 -14 38 -14 l23 2 -23 4 c-29 6 -50 42 -31 54 9 5 17 3
22 -6 13 -23 29 -18 17 5 -9 17 -7 20 15 26 14 3 35 4 46 1 16 -4 18 -3 8 9
-17 20 7 18 96 -7 50 -15 82 -19 102 -14 15 5 31 8 36 7 4 -1 7 2 7 7 0 5 -27
8 -59 5 -71 -4 -117 13 -93 35 19 18 107 27 116 12 11 -17 22 -13 23 8 1 11
-6 21 -19 24 -11 3 -17 10 -14 15 8 14 46 3 46 -13 0 -18 18 -23 62 -15 27 5
41 3 49 -6 6 -8 18 -14 26 -14 13 0 13 2 2 16 -12 15 -11 16 11 10 23 -7 23
-6 -4 13 -17 11 -33 18 -38 15 -4 -3 -8 4 -8 14 0 14 -7 20 -25 20 -14 0 -25
-4 -25 -9 0 -5 10 -9 23 -9 21 -1 21 -1 3 -11 -13 -8 -20 -8 -26 0 -4 7 -21
13 -39 13 -30 1 -30 2 -11 15 11 8 25 11 30 8 6 -3 16 -3 23 2 6 4 35 8 62 9
28 1 57 2 65 3 23 2 53 57 44 83 -6 21 -7 21 -21 -6 -9 -17 -20 -25 -28 -22
-8 3 -31 -2 -52 -10 -35 -15 -37 -15 -55 8 -19 25 -23 48 -8 48 5 0 7 7 4 15
-3 8 1 29 10 46 20 41 20 53 0 45 -9 -4 -22 -1 -30 5 -9 8 -29 7 -71 -1 -88
-18 -91 -20 -70 -32 10 -5 26 -6 35 -2 9 4 38 9 65 11 53 4 59 -6 31 -58 -10
-20 -13 -41 -9 -61 l7 -31 -35 21 c-44 28 -49 28 -37 -3 8 -20 6 -27 -6 -32
-8 -3 -20 -1 -27 6 -8 8 -8 11 1 11 7 0 12 5 12 10 0 6 -12 10 -27 10 -25 0
-26 -1 -8 -20 15 -17 16 -25 7 -52 -6 -18 -11 -24 -10 -13 1 11 -5 34 -12 50
l-13 30 -9 -43 c-13 -61 -27 -42 -22 31 2 34 4 72 4 85 0 12 7 25 15 28 8 4
13 9 11 13 -3 4 13 27 35 50 21 24 39 49 39 55 0 6 5 4 10 -4 10 -15 60 -22
60 -8 0 4 -10 8 -23 8 -13 0 -28 5 -35 12 -9 9 -17 7 -35 -10 -27 -26 -39 -28
-31 -7 10 25 -7 17 -40 -19 -45 -47 -72 -54 -80 -21 -8 30 0 48 16 39 7 -5 8
-2 4 5 -5 8 0 14 13 18 12 3 21 12 21 19 0 17 -5 17 -33 0 -12 -7 -36 -16 -54
-19 -27 -5 -32 -3 -38 20 -7 29 -3 36 23 38 9 0 23 4 29 8 6 4 38 10 70 13 58
5 78 13 56 21 -7 3 -13 9 -13 14 0 14 61 10 95 -6 l30 -13 -49 -1 c-73 -1 -49
-12 28 -12 43 -1 71 -6 80 -15 8 -8 18 -14 22 -14 5 0 46 -19 93 -42 56 -29
78 -44 65 -46 -10 -2 -23 -8 -28 -12 -5 -5 1 -6 13 -3 12 3 21 1 21 -6 0 -6 8
-11 17 -11 13 0 14 -3 5 -12 -10 -10 -17 -10 -32 0 -24 15 -57 16 -65 1 -4 -6
-14 -8 -22 -5 -9 4 -17 -1 -20 -14 -3 -11 -13 -20 -22 -20 -12 -1 51 -29 66
-30 1 0 -1 8 -4 18 -5 14 -4 15 8 6 16 -12 99 -7 99 7 0 5 7 9 15 9 11 0 12
-5 5 -25 -11 -29 -8 -31 25 -9 14 9 22 21 18 28 -3 6 3 2 15 -8 19 -16 26 -17
48 -8 25 12 74 7 74 -8 0 -11 49 -19 56 -9 3 5 0 9 -5 9 -6 0 -11 5 -11 10 0
15 21 12 34 -5 9 -13 19 -14 51 -6 22 5 34 9 28 10 -7 1 -13 6 -13 11 0 6 19
8 48 5 32 -3 41 -2 27 5 -11 5 -36 9 -56 9 -20 1 -42 8 -49 16 -16 20 -64 20
-57 1 4 -10 -4 -15 -26 -19 -18 -2 -33 -1 -35 4 -2 5 -12 9 -23 9 -11 0 -19 7
-19 18 0 9 4 13 8 7 9 -13 42 -16 42 -4 0 5 21 9 46 9 30 0 43 4 38 11 -4 8
-40 9 -114 5 -97 -6 -108 -4 -114 11 -3 10 -9 24 -12 31 -4 8 3 12 22 12 20 0
25 3 17 11 -8 8 -17 8 -33 -1 -12 -6 -28 -9 -36 -6 -22 9 -16 35 11 48 16 7
25 19 25 35 0 21 -2 22 -22 11 -13 -7 -31 -19 -40 -26 -22 -18 -35 -9 -43 28
-11 50 6 67 67 65 29 0 69 -4 90 -9 32 -7 36 -6 35 11 -1 10 4 17 11 16 6 -2
12 2 12 8 0 6 -7 9 -15 5 -14 -5 -19 6 -18 42 1 6 -3 12 -8 12 -5 0 -9 12 -9
28 0 23 4 27 28 27 15 0 33 -4 41 -9 10 -6 12 -5 7 2 -5 8 0 12 13 12 10 0 21
-5 23 -11 2 -5 11 -7 21 -4 25 10 11 25 -24 25 -17 0 -28 4 -25 8 3 4 21 6 40
4 27 -3 36 -9 36 -23z m360 -31 c0 -7 22 -28 48 -46 42 -30 44 -33 17 -26 -16
4 -45 7 -62 6 -18 -1 -33 2 -33 7 0 5 -6 8 -12 7 -28 -3 -24 38 5 52 30 14 37
14 37 0z m-130 -50 c0 -3 8 -9 18 -11 9 -3 -15 -5 -55 -6 -70 -1 -111 14 -56
21 47 5 93 3 93 -4z m150 -48 c0 -13 -11 -13 -30 0 -12 8 -11 10 8 10 12 0 22
-4 22 -10z m25 0 c3 -5 1 -10 -4 -10 -6 0 -11 5 -11 10 0 6 2 10 4 10 3 0 8
-4 11 -10z m192 -156 c-3 -3 -12 -4 -19 -1 -8 3 -5 6 6 6 11 1 17 -2 13 -5z
m407 -29 c9 -14 22 -25 29 -25 8 0 12 -20 13 -60 1 -33 -3 -60 -8 -60 -5 0 -4
-9 2 -20 6 -12 8 -30 5 -41 -4 -11 -2 -26 4 -33 9 -10 7 -15 -5 -20 -10 -4
-21 0 -29 10 -9 12 -19 15 -39 10 -18 -4 -25 -3 -21 4 3 5 22 10 41 10 19 0
34 5 34 11 0 8 -13 10 -38 6 -37 -4 -39 -3 -41 24 -6 93 0 149 16 149 8 0 11
5 8 10 -3 6 -1 10 4 10 6 0 11 5 11 10 0 6 -7 10 -15 10 -8 0 -15 5 -15 10 0
19 28 10 44 -15z m-1219 -84 c10 -17 -12 -21 -25 -6 -10 12 -10 15 3 15 9 0
18 -4 22 -9z m50 -11 c3 -5 -1 -10 -9 -10 -8 0 -18 5 -21 10 -3 6 1 10 9 10 8
0 18 -4 21 -10z m206 -18 c7 -18 5 -22 -11 -22 -13 0 -18 5 -14 15 4 8 1 15
-6 15 -6 0 -8 5 -5 11 10 15 27 6 36 -19z m314 -132 c4 -6 -5 -10 -19 -10 -14
0 -26 5 -26 10 0 6 9 10 19 10 11 0 23 -4 26 -10z m500 0 c3 -5 1 -10 -4 -10
-6 0 -11 5 -11 10 0 6 2 10 4 10 3 0 8 -4 11 -10z m-1245 -20 c0 -5 -2 -10 -4
-10 -3 0 -8 5 -11 10 -3 6 -1 10 4 10 6 0 11 -4 11 -10z m1440 -29 c0 -12 -38
-21 -58 -13 -14 5 -12 7 8 13 36 10 50 10 50 0z m-410 -32 c0 -4 -7 -6 -15 -3
-8 4 -15 10 -15 15 0 4 7 6 15 3 8 -4 15 -10 15 -15z m400 -10 c0 -5 5 -7 10
-4 6 3 10 -3 10 -14 0 -12 -6 -22 -12 -22 -80 -8 -88 -6 -88 23 0 26 3 28 40
28 22 0 40 -5 40 -11z m-215 -49 c3 -5 1 -10 -4 -10 -6 0 -11 5 -11 10 0 6 2
10 4 10 3 0 8 -4 11 -10z m213 -16 c6 3 13 2 16 -3 3 -5 -1 -12 -9 -15 -14 -5
-14 -9 1 -31 9 -14 15 -27 13 -29 -2 -2 -21 -1 -42 2 -40 4 -60 28 -37 42 9 6
7 10 -9 15 -12 3 -19 11 -15 16 3 5 8 8 12 5 4 -2 16 0 27 4 11 4 23 3 26 -3
4 -5 11 -7 17 -3z m-514 -10 c9 -8 13 -20 10 -25 -3 -6 -12 -2 -20 8 -24 32
-17 44 10 17z m210 -31 c3 -10 9 -24 12 -31 4 -8 0 -10 -9 -6 -8 3 -17 16 -20
30 -5 28 8 33 17 7z m111 -16 c-20 -11 -29 -3 -21 19 5 13 9 14 22 3 14 -11
14 -13 -1 -22z m-190 14 c-6 -11 -73 -12 -80 -2 -3 5 15 9 40 9 25 0 43 -3 40
-7z m305 -22 c0 -6 -4 -7 -10 -4 -5 3 -10 11 -10 16 0 6 5 7 10 4 6 -3 10 -11
10 -16z m-326 -14 c17 -13 18 -15 3 -15 -9 0 -17 5 -17 11 0 6 -7 8 -16 5 -8
-3 -12 -2 -9 4 8 13 16 12 39 -5z m206 -15 c0 -4 16 -15 35 -24 40 -19 44 -31
15 -39 -15 -4 -20 0 -20 14 0 11 -7 19 -17 19 -17 0 -53 27 -53 41 0 4 9 5 20
2 11 -3 20 -9 20 -13z m-160 6 c0 -3 -4 -8 -10 -11 -5 -3 -10 -1 -10 4 0 6 5
11 10 11 6 0 10 -2 10 -4z m315 -12 c10 -10 24 -14 39 -10 20 5 24 2 24 -18 0
-19 -7 -25 -29 -28 -20 -3 -26 -1 -19 7 11 13 -44 50 -60 40 -6 -3 -10 1 -10
9 0 21 34 21 55 0z m-38 -48 c-6 -14 30 -26 80 -26 15 0 22 -4 17 -11 -3 -6
-15 -8 -27 -5 -11 3 -33 2 -50 -1 -29 -6 -29 -7 -11 -21 18 -14 18 -14 1 -8
-10 3 -23 6 -28 6 -4 0 -6 7 -2 16 3 9 0 20 -8 25 -10 6 -10 9 -2 9 7 0 10 7
7 15 -4 10 0 15 11 15 11 0 15 -5 12 -14z m-317 -48 c0 -5 -7 -8 -15 -8 -13 0
-35 28 -35 45 0 9 49 -28 50 -37z m-1302 -35 c2 -9 -8 -13 -35 -13 -36 1 -37
1 -18 16 22 17 46 15 53 -3z m1338 -10 c16 -22 17 -33 3 -33 -5 0 -8 4 -4 9 7
13 -32 34 -47 25 -7 -4 -8 -3 -4 4 11 17 37 14 52 -5z m394 7 c0 -5 -2 -10 -4
-10 -3 0 -8 5 -11 10 -3 6 -1 10 4 10 6 0 11 -4 11 -10z m-95 -10 c4 -7 12 -7
24 0 21 11 32 4 25 -15 -6 -15 -38 -9 -69 12 -16 11 -17 13 -3 13 9 0 20 -5
23 -10z m-1600 -20 c3 -5 -1 -10 -10 -10 -9 0 -13 5 -10 10 3 6 8 10 10 10 2
0 7 -4 10 -10z m1044 0 c10 -5 21 -16 24 -25 5 -12 3 -13 -13 -2 -11 6 -20 15
-20 20 0 4 -4 5 -10 2 -5 -3 -10 -1 -10 4 0 14 6 14 29 1z m228 -5 c0 -8 -4
-15 -9 -15 -4 0 -8 4 -8 10 0 5 -7 7 -15 4 -8 -4 -15 -1 -15 5 0 6 11 11 23
11 14 0 24 -6 24 -15z m-1367 -20 c10 -11 6 -12 -19 -2 -17 6 -31 14 -31 18 0
11 38 -2 50 -16z m605 5 c3 -6 -1 -7 -9 -4 -18 7 -21 14 -7 14 6 0 13 -4 16
-10z m643 -15 c1 -1 -11 -2 -26 -1 -19 1 -28 5 -25 13 4 10 10 10 26 1 12 -6
23 -12 25 -13z m-478 5 c11 -7 5 -10 -22 -10 -21 0 -38 5 -38 10 0 13 40 13
60 0z m147 -3 c6 -4 13 -2 15 4 2 6 14 8 32 3 35 -8 15 -24 -26 -19 -15 2 -41
-2 -58 -8 -23 -9 -33 -8 -42 1 -9 9 -7 12 10 12 12 0 22 4 22 10 0 11 28 9 47
-3z m478 -25 c-3 -3 -11 0 -18 7 -9 10 -8 11 6 5 10 -3 15 -9 12 -12z m335 3
c0 -9 -6 -12 -15 -9 -8 4 -15 10 -15 15 0 5 7 9 15 9 8 0 15 -7 15 -15z
m-1006 -16 c-3 -5 1 -10 8 -10 7 -1 18 -2 23 -4 6 -1 16 -3 23 -3 6 -1 12 -5
12 -10 0 -4 -18 -6 -40 -4 -22 2 -40 8 -40 12 0 5 -3 16 -6 24 -5 12 -2 15 10
10 9 -3 13 -10 10 -15z m596 12 c2 -1 -6 -8 -18 -17 -29 -20 -28 -27 8 -41 31
-12 41 -33 15 -33 -8 0 -15 5 -15 11 0 5 -4 8 -9 5 -5 -3 -14 1 -21 9 -7 8
-16 12 -21 9 -5 -3 -9 -1 -9 5 0 5 8 15 18 21 12 8 13 13 4 16 -29 13 3 23 48
15z m40 -1 c12 -8 11 -10 -7 -10 -13 0 -23 5 -23 10 0 13 11 13 30 0z m-395
-51 c32 -19 36 -24 21 -27 -11 -2 -25 4 -32 13 -12 17 -15 16 -38 -6 -14 -13
-26 -26 -26 -29 0 -6 48 -10 118 -10 35 0 52 -4 52 -13 0 -13 -61 -14 -135 -3
-53 9 -61 19 -34 45 18 16 19 21 7 21 -9 0 -19 7 -22 16 -8 22 1 31 16 16 7
-7 17 -12 22 -12 6 0 5 5 -2 12 -7 7 -12 16 -12 22 0 5 6 3 13 -6 6 -8 30 -26
52 -39z m-1021 26 c3 -8 1 -15 -3 -15 -5 0 -11 7 -15 15 -3 8 -1 15 3 15 5 0
11 -7 15 -15z m1058 3 c-17 -8 -26 -8 -34 0 -9 9 -4 12 23 11 32 0 33 -1 11
-11z m-667 -34 c27 -3 28 -6 10 -14 -31 -14 -55 -11 -55 5 0 8 -5 15 -11 15
-5 0 -7 5 -4 10 4 7 14 6 28 -2 12 -7 27 -13 32 -14z m255 22 c0 -11 -19 -15
-25 -6 -3 5 1 10 9 10 9 0 16 -2 16 -4z m1087 -2 c-3 -3 -12 -4 -19 -1 -8 3
-5 6 6 6 11 1 17 -2 13 -5z m-1780 -10 c-3 -3 -12 -4 -19 -1 -8 3 -5 6 6 6 11
1 17 -2 13 -5z m518 -4 c3 -5 -1 -10 -10 -10 -9 0 -13 5 -10 10 3 6 8 10 10
10 2 0 7 -4 10 -10z m1005 0 c0 -5 -4 -10 -10 -10 -5 0 -10 5 -10 10 0 6 5 10
10 10 6 0 10 -4 10 -10z m-1562 -13 c9 -10 3 -13 -31 -11 -54 3 -56 4 -32 14
30 13 51 12 63 -3z m1507 3 c3 -5 1 -10 -4 -10 -6 0 -11 5 -11 10 0 6 2 10 4
10 3 0 8 -4 11 -10z m-815 -15 c0 -8 -7 -15 -15 -15 -16 0 -20 12 -8 23 11 12
23 8 23 -8z m207 -5 c24 0 43 -26 43 -61 0 -18 -2 -19 -15 -9 -8 7 -15 18 -15
25 0 8 -13 19 -30 27 -16 7 -30 19 -30 27 0 12 3 12 12 3 7 -7 22 -12 35 -12z
m293 5 c11 -13 10 -14 -4 -9 -9 3 -16 10 -16 15 0 13 6 11 20 -6z m678 -1
c-11 -11 -23 -14 -35 -9 -16 7 -15 9 7 15 40 12 45 11 28 -6z m-1943 -14 c3
-5 -1 -10 -9 -10 -9 0 -16 5 -16 10 0 6 4 10 9 10 6 0 13 -4 16 -10z m605 0
c0 -5 -9 -10 -21 -10 -11 0 -17 5 -14 10 3 6 13 10 21 10 8 0 14 -4 14 -10z
m1000 -4 c0 -8 -7 -16 -15 -20 -15 -5 -21 14 -8 27 11 12 23 8 23 -7z m50 6
c0 -4 -9 -8 -20 -9 -11 -1 -20 2 -20 5 0 4 9 8 20 9 11 1 20 -2 20 -5z m230 4
c0 -3 -4 -8 -10 -11 -5 -3 -10 -1 -10 4 0 6 5 11 10 11 6 0 10 -2 10 -4z
m-1393 -53 c-9 -8 -48 8 -42 18 4 5 14 5 26 -2 12 -6 18 -13 16 -16z m68 17
c3 -5 -1 -10 -9 -10 -8 0 -18 5 -21 10 -3 6 1 10 9 10 8 0 18 -4 21 -10z
m1399 -22 c-3 -4 -20 -8 -37 -7 -27 0 -29 2 -12 9 25 10 55 9 49 -2z m-1967
-4 c-3 -3 -12 -4 -19 -1 -8 3 -5 6 6 6 11 1 17 -2 13 -5z m1603 -9 c11 -13 10
-14 -4 -9 -9 3 -16 10 -16 15 0 13 6 11 20 -6z m96 -14 c1 -6 0 -7 -3 -1 -2 5
-13 10 -24 10 -10 0 -19 4 -19 10 0 13 43 -4 46 -19z m-717 -21 c20 0 41 -19
41 -38 0 -19 -84 32 -89 54 -3 16 -2 17 14 1 9 -9 24 -17 34 -17z m209 9 c-19
-13 -28 -11 -28 5 0 9 7 12 21 9 16 -4 17 -8 7 -14z m88 -1 c1 -10 -2 -20 -7
-24 -5 -3 -9 2 -9 10 0 9 -8 16 -19 16 -11 0 -23 5 -26 11 -5 7 4 9 26 7 21
-2 33 -9 35 -20z m-781 -10 c3 -3 -10 -5 -29 -4 -19 0 -38 5 -42 9 -5 4 8 6
29 4 20 -2 39 -6 42 -9z m82 6 c-3 -3 -12 -4 -19 -1 -8 3 -5 6 6 6 11 1 17 -2
13 -5z m1323 -24 c8 -5 12 -11 9 -14 -3 -3 -14 1 -25 9 -21 16 -8 20 16 5z
m-631 -10 c4 0 8 -7 8 -15 0 -8 -6 -15 -14 -15 -7 0 -13 6 -13 14 0 8 -3 16
-7 19 -5 2 -2 2 5 0 8 -1 17 -3 21 -3z m690 -11 c-14 -8 -29 -3 -29 11 0 4 9
6 21 3 15 -4 17 -8 8 -14z m-1489 -9 c0 -5 -9 -10 -21 -10 -11 0 -17 5 -14 10
3 6 13 10 21 10 8 0 14 -4 14 -10z m505 -10 c3 -5 -2 -10 -12 -11 -14 0 -14
-2 -3 -6 41 -13 60 -28 59 -47 0 -21 0 -21 -16 2 -8 12 -20 22 -26 22 -13 0
-47 30 -47 42 0 11 38 10 45 -2z m249 -5 c3 -8 1 -15 -4 -15 -6 0 -10 7 -10
15 0 8 2 15 4 15 2 0 6 -7 10 -15z m661 -5 c3 -5 -1 -10 -10 -10 -9 0 -13 5
-10 10 3 6 8 10 10 10 2 0 7 -4 10 -10z m50 0 c-3 -5 -12 -7 -20 -3 -21 7 -19
13 6 13 11 0 18 -4 14 -10z m-1450 -11 c-4 -6 -10 -8 -13 -5 -3 3 -11 1 -18
-5 -7 -6 -19 -7 -26 -3 -9 6 -5 10 12 15 38 11 52 10 45 -2z m21 -19 c0 -12
-4 -16 -9 -11 -5 5 -6 14 -3 20 10 15 12 14 12 -9z m784 6 c0 -8 -5 -18 -12
-22 -7 -5 -8 -3 -3 6 4 7 2 16 -6 21 -11 7 -10 9 4 9 9 0 17 -6 17 -14z m660
-6 c0 -5 -2 -10 -4 -10 -3 0 -8 5 -11 10 -3 6 -1 10 4 10 6 0 11 -4 11 -10z
m-43 -35 c18 4 24 2 20 -7 -8 -23 -67 0 -67 26 0 6 5 3 11 -7 8 -14 18 -17 36
-12z m-652 3 c14 -6 25 -17 25 -25 0 -17 -1 -17 -40 12 -36 26 -28 33 15 13z
m-745 -19 c0 -6 -7 -8 -17 -5 -9 4 -20 1 -24 -5 -4 -6 -12 -8 -18 -5 -6 4 -9
12 -6 17 9 13 65 11 65 -2z m485 -9 c18 -1 18 -2 -3 -11 -13 -5 -28 -6 -34 -3
-6 4 -14 0 -19 -7 -6 -10 -9 -8 -9 10 0 19 4 22 23 17 12 -3 31 -6 42 -6z
m910 -20 c3 -5 -3 -10 -14 -10 -12 0 -21 5 -21 10 0 6 6 10 14 10 8 0 18 -4
21 -10z m-888 -25 c9 -25 -2 -27 -22 -5 -17 18 -17 20 -1 20 9 0 19 -7 23 -15z
m943 5 c0 -5 -2 -10 -4 -10 -3 0 -8 5 -11 10 -3 6 -1 10 4 10 6 0 11 -4 11
-10z m-60 -20 c0 -5 -4 -10 -10 -10 -5 0 -10 5 -10 10 0 6 5 10 10 10 6 0 10
-4 10 -10z m-909 -17 c11 -13 11 -15 1 -9 -7 4 -20 5 -29 2 -15 -6 -14 -8 3
-21 11 -7 28 -13 38 -12 26 3 31 -19 7 -26 -12 -3 -22 1 -25 9 -3 8 -12 14
-20 14 -9 0 -20 9 -26 20 -9 16 -8 20 5 20 8 0 15 5 15 10 0 15 16 12 31 -7z
m916 -29 c-3 -3 -12 -4 -19 -1 -8 3 -5 6 6 6 11 1 17 -2 13 -5z m13 -58 c0
-11 -19 -15 -25 -6 -3 5 1 10 9 10 9 0 16 -2 16 -4z m-901 -48 c3 -10 1 -10
-10 -1 -8 6 -18 12 -24 13 -22 5 -35 13 -35 21 0 13 64 -17 69 -33z m846 -8
c3 -5 1 -10 -4 -10 -6 0 -11 5 -11 10 0 6 2 10 4 10 3 0 8 -4 11 -10z m85 -2
c0 -11 -12 -10 -30 2 -12 7 -10 9 8 7 12 0 22 -5 22 -9z m-913 -20 c-3 -8 -6
-5 -6 6 -1 11 2 17 5 13 3 -3 4 -12 1 -19z m-53 -4 c3 -8 2 -12 -4 -9 -6 3
-10 10 -10 16 0 14 7 11 14 -7z m916 6 c0 -5 -4 -10 -10 -10 -5 0 -10 5 -10
10 0 6 5 10 10 10 6 0 10 -4 10 -10z m40 -31 c0 -14 -17 -10 -23 5 -4 10 -1
13 9 9 7 -3 14 -9 14 -14z m-60 -14 c14 -16 10 -18 -14 -9 -9 3 -16 10 -16 15
0 14 16 11 30 -6z m-851 -24 c9 -6 10 -11 2 -15 -15 -10 -53 3 -46 15 8 11 26
11 44 0z m911 -41 c0 -5 -2 -10 -4 -10 -3 0 -8 5 -11 10 -3 6 -1 10 4 10 6 0
11 -4 11 -10z m-910 -30 c0 -5 -7 -10 -16 -10 -8 0 -12 5 -9 10 3 6 10 10 16
10 5 0 9 -4 9 -10z m905 -59 c3 -6 -6 -9 -19 -8 -14 1 -25 -2 -25 -8 0 -5 9
-9 19 -7 15 3 20 -2 19 -20 -1 -16 -3 -18 -6 -6 -2 9 -10 15 -17 12 -7 -3 -19
2 -26 11 -7 8 -9 15 -4 15 5 0 2 5 -6 10 -11 7 -6 10 22 10 20 0 39 -4 43 -9z
m-975 -36 c0 -9 -6 -12 -15 -9 -8 4 -15 10 -15 15 0 5 7 9 15 9 8 0 15 -7 15
-15z m76 -8 c4 -4 -7 -7 -24 -7 -17 0 -33 4 -36 8 -6 10 50 9 60 -1z m874 -47
c0 -5 -2 -10 -4 -10 -3 0 -8 5 -11 10 -3 6 -1 10 4 10 6 0 11 -4 11 -10z
m-901 -9 c7 -5 9 -11 4 -14 -4 -3 -17 1 -28 9 -21 16 0 20 24 5z m856 -31 c3
-5 -1 -10 -9 -10 -9 0 -16 5 -16 10 0 6 4 10 9 10 6 0 13 -4 16 -10z m-10 -70
c3 -5 1 -10 -4 -10 -6 0 -11 5 -11 10 0 6 2 10 4 10 3 0 8 -4 11 -10z m10 -90
c3 -5 1 -10 -4 -10 -6 0 -11 5 -11 10 0 6 2 10 4 10 3 0 8 -4 11 -10z m-875
-31 c0 -6 -4 -7 -10 -4 -5 3 -10 11 -10 16 0 6 5 7 10 4 6 -3 10 -11 10 -16z
m43 -36 c-7 -2 -19 -2 -25 0 -7 3 -2 5 12 5 14 0 19 -2 13 -5z m47 -323 c0 -5
-5 -10 -11 -10 -5 0 -7 5 -4 10 3 6 8 10 11 10 2 0 4 -4 4 -10z"/>
<path d="M3600 4480 c0 -16 36 -30 78 -30 32 0 41 -5 50 -25 12 -27 19 -30 40
-16 11 7 10 9 -3 15 -9 3 -14 9 -11 14 11 18 -14 34 -58 36 -25 2 -49 6 -53 9
-10 11 -43 8 -43 -3z"/>
<path d="M2998 4443 c7 -3 16 -2 19 1 4 3 -2 6 -13 5 -11 0 -14 -3 -6 -6z"/>
<path d="M3654 4423 c3 -7 -1 -13 -10 -13 -8 0 -12 5 -9 10 3 6 -5 10 -19 10
-18 0 -24 -4 -20 -15 5 -11 22 -15 67 -15 57 0 60 1 44 17 -20 21 -60 26 -53
6z"/>
<path d="M3565 4421 c-3 -5 -1 -12 5 -16 5 -3 10 1 10 9 0 18 -6 21 -15 7z"/>
<path d="M2837 4393 c-7 -7 38 -33 57 -33 6 0 0 9 -14 20 -27 21 -33 23 -43
13z"/>
<path d="M2780 4380 c0 -6 7 -10 15 -10 8 0 15 2 15 4 0 2 -7 6 -15 10 -8 3
-15 1 -15 -4z"/>
<path d="M3722 4382 c-30 -2 -50 -7 -47 -13 4 -5 11 -7 16 -4 5 4 9 -1 9 -9 0
-21 10 -20 26 2 12 16 14 16 34 -5 22 -25 46 -29 70 -13 13 8 13 10 1 10 -8 0
-24 8 -35 18 -16 12 -35 16 -74 14z"/>
<path d="M3430 4370 c0 -13 28 -25 38 -16 3 4 0 11 -8 16 -20 13 -30 12 -30 0z"/>
<path d="M3510 4376 c0 -2 9 -6 20 -9 11 -3 20 -1 20 4 0 5 -9 9 -20 9 -11 0
-20 -2 -20 -4z"/>
<path d="M3310 4361 c0 -12 39 -25 47 -17 4 3 1 6 -6 6 -7 0 -9 5 -6 10 3 6
-3 10 -14 10 -12 0 -21 -4 -21 -9z"/>
<path d="M2780 4350 c-25 -6 -25 -6 -3 -14 25 -8 66 7 42 16 -8 2 -25 2 -39
-2z"/>
<path d="M2918 4353 c7 -3 16 -2 19 1 4 3 -2 6 -13 5 -11 0 -14 -3 -6 -6z"/>
<path d="M3630 4350 c0 -5 5 -10 10 -10 6 0 10 5 10 10 0 6 -4 10 -10 10 -5 0
-10 -4 -10 -10z"/>
<path d="M2846 4336 c7 -18 22 -20 44 -6 13 8 13 10 -2 10 -9 0 -24 3 -32 6
-12 5 -15 2 -10 -10z"/>
<path d="M3570 4326 c0 -2 7 -7 16 -10 8 -3 12 -2 9 4 -6 10 -25 14 -25 6z"/>
<path d="M2800 4316 c0 -2 7 -6 15 -10 8 -3 15 -1 15 4 0 6 -7 10 -15 10 -8 0
-15 -2 -15 -4z"/>
<path d="M3617 4309 c8 -8 16 -8 30 0 16 9 14 10 -11 11 -22 0 -27 -3 -19 -11z"/>
<path d="M3335 4296 l-30 -13 36 1 c21 1 36 6 36 14 0 15 -4 15 -42 -2z"/>
<path d="M2853 4293 c9 -2 25 -2 35 0 9 3 1 5 -18 5 -19 0 -27 -2 -17 -5z"/>
<path d="M3246 4285 c4 -8 10 -15 15 -15 4 0 6 7 3 15 -4 8 -10 15 -15 15 -4
0 -6 -7 -3 -15z"/>
<path d="M3644 4291 c3 -5 17 -8 31 -8 14 0 25 3 25 8 0 5 -14 9 -31 9 -16 0
-28 -4 -25 -9z"/>
<path d="M2668 4278 c5 -5 16 -8 23 -6 8 3 3 7 -10 11 -17 4 -21 3 -13 -5z"/>
<path d="M2758 4283 c7 -3 16 -2 19 1 4 3 -2 6 -13 5 -11 0 -14 -3 -6 -6z"/>
<path d="M2937 4282 c-19 -8 -21 -6 47 -41 5 -2 6 1 2 7 -5 8 2 12 20 12 18 0
25 3 18 10 -14 14 -66 21 -87 12z"/>
<path d="M3580 4281 c0 -5 7 -12 16 -15 21 -8 21 -8 21 9 0 8 -9 15 -19 15
-10 0 -18 -4 -18 -9z"/>
<path d="M2618 4273 c7 -3 16 -2 19 1 4 3 -2 6 -13 5 -11 0 -14 -3 -6 -6z"/>
<path d="M2875 4250 c3 -5 8 -10 11 -10 2 0 4 5 4 10 0 6 -5 10 -11 10 -5 0
-7 -4 -4 -10z"/>
<path d="M3327 4223 c-4 -3 -28 -5 -54 -4 -26 1 -44 -1 -41 -4 10 -10 89 -8
100 3 7 7 10 12 7 12 -3 0 -9 -3 -12 -7z"/>
<path d="M3384 4223 c4 -4 19 -9 34 -10 21 -3 24 -1 12 7 -17 11 -57 14 -46 3z"/>
<path d="M3468 4223 c-2 -4 6 -18 19 -30 14 -14 23 -17 23 -9 0 16 -37 50 -42
39z"/>
<path d="M2598 4213 c6 -2 18 -2 25 0 6 3 1 5 -13 5 -14 0 -19 -2 -12 -5z"/>
<path d="M2830 4190 c0 -5 5 -10 11 -10 5 0 7 5 4 10 -3 6 -8 10 -11 10 -2 0
-4 -4 -4 -10z"/>
<path d="M3575 4190 c3 -5 8 -10 11 -10 2 0 4 5 4 10 0 6 -5 10 -11 10 -5 0
-7 -4 -4 -10z"/>
<path d="M2610 4165 c0 -8 4 -15 10 -15 5 0 7 7 4 15 -4 8 -8 15 -10 15 -2 0
-4 -7 -4 -15z"/>
<path d="M3231 4171 c-18 -12 48 -44 81 -39 26 3 31 29 8 36 -13 5 -13 3 -1
-11 12 -15 11 -17 -7 -17 -25 0 -74 25 -65 33 9 10 1 8 -16 -2z"/>
<path d="M3445 4170 c3 -5 8 -10 11 -10 2 0 4 5 4 10 0 6 -5 10 -11 10 -5 0
-7 -4 -4 -10z"/>
<path d="M3355 4150 c4 -6 11 -8 16 -5 14 9 11 15 -7 15 -8 0 -12 -5 -9 -10z"/>
<path d="M3427 4124 c-11 -11 3 -24 25 -24 17 0 18 2 8 15 -13 16 -23 19 -33
9z"/>
<path d="M2770 4104 c0 -8 5 -12 10 -9 6 4 8 11 5 16 -9 14 -15 11 -15 -7z"/>
<path d="M2860 4110 c0 -5 5 -10 11 -10 5 0 7 5 4 10 -3 6 -8 10 -11 10 -2 0
-4 -4 -4 -10z"/>
<path d="M2890 4115 c0 -4 6 -13 14 -21 16 -16 40 -19 31 -4 -8 12 -45 33 -45
25z"/>
<path d="M3150 4110 c-8 -5 -24 -11 -34 -15 -32 -10 -14 -13 42 -8 35 4 52 10
52 19 0 15 -36 18 -60 4z"/>
<path d="M2815 4100 c-17 -6 -16 -7 8 -12 15 -3 27 -2 27 3 0 13 -14 17 -35 9z"/>
<path d="M3240 4099 c0 -5 9 -9 20 -9 11 0 20 2 20 4 0 2 -9 6 -20 9 -11 3
-20 1 -20 -4z"/>
<path d="M3358 4103 c15 -6 16 -45 0 -61 -9 -9 -7 -12 10 -12 12 0 29 -11 38
-24 9 -16 21 -23 31 -19 13 5 12 8 -3 16 -11 6 -25 17 -33 25 -12 12 -12 15 0
22 11 7 11 10 -3 15 -9 4 -18 15 -21 26 -3 10 -11 19 -19 18 -10 0 -10 -2 0
-6z"/>
<path d="M3580 4101 c0 -6 5 -13 10 -16 6 -3 10 1 10 9 0 9 -4 16 -10 16 -5 0
-10 -4 -10 -9z"/>
<path d="M3445 4070 c21 -24 26 -25 19 -6 -3 8 -13 17 -22 21 -13 5 -13 2 3
-15z"/>
<path d="M2410 4070 c0 -5 7 -10 15 -10 8 0 15 5 15 10 0 6 -7 10 -15 10 -8 0
-15 -4 -15 -10z"/>
<path d="M2758 4073 c7 -3 16 -2 19 1 4 3 -2 6 -13 5 -11 0 -14 -3 -6 -6z"/>
<path d="M2955 4072 c14 -14 125 -16 125 -2 0 3 -30 7 -66 7 -36 1 -63 -2 -59
-5z"/>
<path d="M3245 4070 c-3 -5 -1 -10 4 -10 6 0 11 5 11 10 0 6 -2 10 -4 10 -3 0
-8 -4 -11 -10z"/>
<path d="M2857 4057 c-3 -7 3 -13 12 -14 37 -3 106 -15 113 -19 4 -3 5 1 2 9
-3 8 -17 14 -32 15 -36 1 -65 6 -79 15 -6 4 -13 1 -16 -6z"/>
<path d="M3106 4046 c3 -9 13 -16 22 -16 8 0 13 1 11 3 -2 1 -12 9 -22 16 -15
12 -17 12 -11 -3z"/>
<path d="M3510 4056 c0 -2 7 -9 15 -16 9 -7 15 -8 15 -2 0 5 -7 12 -15 16 -8
3 -15 4 -15 2z"/>
<path d="M2460 4030 c0 -5 4 -10 9 -10 6 0 13 5 16 10 3 6 -1 10 -9 10 -9 0
-16 -4 -16 -10z"/>
<path d="M3463 4033 c9 -2 23 -2 30 0 6 3 -1 5 -18 5 -16 0 -22 -2 -12 -5z"/>
<path d="M2595 4020 c3 -5 11 -10 16 -10 6 0 7 5 4 10 -3 6 -11 10 -16 10 -6
0 -7 -4 -4 -10z"/>
<path d="M3067 4016 c-4 -10 1 -12 14 -9 23 6 24 9 5 16 -8 3 -17 0 -19 -7z"/>
<path d="M3180 4026 c0 -2 7 -7 16 -10 8 -3 12 -2 9 4 -6 10 -25 14 -25 6z"/>
<path d="M3276 4015 c10 -8 24 -14 29 -14 6 0 1 6 -9 14 -11 8 -24 15 -30 15
-5 0 -1 -7 10 -15z"/>
<path d="M2516 4011 c-4 -5 1 -8 9 -7 21 3 31 16 12 16 -9 0 -18 -4 -21 -9z"/>
<path d="M3156 4008 c5 -7 -1 -9 -20 -4 -18 4 -26 2 -26 -7 0 -9 9 -12 30 -9
35 5 47 17 24 26 -10 4 -13 2 -8 -6z"/>
<path d="M2992 3998 c2 -6 25 -19 51 -29 46 -18 47 -18 47 1 0 22 -15 27 -23
8 -4 -10 -6 -10 -6 0 -1 6 -8 12 -16 12 -8 0 -15 4 -15 8 0 4 -9 8 -21 9 -11
1 -19 -3 -17 -9z"/>
<path d="M3330 4002 c0 -9 50 -36 56 -30 1 2 0 8 -4 14 -9 15 -52 28 -52 16z"/>
<path d="M3469 4003 c-1 -5 -1 -15 0 -25 2 -13 -5 -15 -39 -12 -22 2 -40 -1
-40 -6 0 -5 -7 -7 -15 -4 -8 4 -15 1 -15 -5 0 -6 14 -11 30 -11 17 0 30 4 30
9 0 5 8 7 19 4 10 -2 37 4 59 15 33 16 43 17 52 7 13 -16 65 -24 82 -13 9 5 5
8 -12 9 -14 1 -29 1 -34 0 -5 -1 -16 5 -26 14 -12 11 -26 14 -44 9 -16 -4 -26
-2 -26 5 0 12 -19 15 -21 4z"/>
<path d="M2456 3985 c9 -23 44 -39 57 -26 7 7 2 12 -17 17 -14 3 -26 10 -26
15 0 5 -4 9 -10 9 -5 0 -7 -7 -4 -15z"/>
<path d="M2568 3983 c18 -2 45 -2 60 0 15 2 0 4 -33 4 -33 0 -45 -2 -27 -4z"/>
<path d="M2416 3965 c10 -8 23 -15 28 -15 6 0 1 7 -10 15 -10 8 -23 15 -28 15
-6 0 -1 -7 10 -15z"/>
<path d="M3200 3970 c-16 -10 16 -21 45 -15 11 2 23 4 28 4 4 1 7 5 7 10 0 11
-62 12 -80 1z"/>
<path d="M2553 3963 c9 -2 23 -2 30 0 6 3 -1 5 -18 5 -16 0 -22 -2 -12 -5z"/>
<path d="M3026 3952 c-10 -17 2 -32 25 -32 10 0 19 5 19 10 0 6 -6 10 -14 10
-8 0 -16 5 -18 12 -3 9 -6 9 -12 0z"/>
<path d="M2760 3920 c0 -12 13 -15 58 -16 55 -2 119 -24 105 -37 -3 -4 7 -7
23 -7 25 -1 26 -2 11 -11 -9 -6 -26 -7 -37 -4 -12 4 -20 2 -20 -5 0 -14 -41
-3 -53 14 -5 6 -7 2 -4 -11 4 -19 1 -23 -19 -23 -15 0 -24 6 -24 15 0 8 8 15
18 15 14 0 15 2 2 10 -13 9 -7 14 13 11 4 0 7 4 7 9 0 13 -47 13 -55 1 -3 -5
-1 -12 5 -16 6 -4 5 -11 -3 -19 -6 -8 -15 -12 -19 -9 -5 2 -8 0 -8 -6 0 -5 6
-12 13 -14 6 -3 0 -6 -15 -6 -16 -1 -28 -5 -28 -11 0 -5 17 -7 38 -5 26 4 33
2 22 -5 -8 -5 -10 -10 -5 -10 6 0 3 -5 -5 -10 -8 -5 -10 -10 -4 -10 7 0 14 -9
17 -20 6 -23 -3 -26 -21 -8 -9 9 -12 9 -12 0 0 -6 -7 -9 -17 -5 -11 4 -14 3
-9 -5 16 -27 86 -10 86 20 0 12 8 27 18 34 15 12 15 15 2 24 -8 5 -10 10 -5
11 6 0 33 1 60 3 28 1 55 5 62 9 6 4 24 2 39 -3 29 -11 94 3 94 21 0 6 -9 5
-21 -2 -17 -8 -23 -8 -29 1 -5 8 -18 10 -36 6 -19 -4 -24 -3 -15 3 20 13 4 31
-28 31 -31 0 -79 29 -48 30 9 0 17 5 17 10 0 13 -50 13 -70 1 -8 -6 -18 -7
-23 -4 -5 3 -4 8 2 12 5 4 -10 7 -34 7 -34 0 -45 -4 -45 -16z"/>
<path d="M2967 3933 c-26 -7 -10 -23 23 -23 22 0 28 4 24 15 -6 15 -14 17 -47
8z"/>
<path d="M3119 3921 c15 -11 33 -16 50 -12 18 3 21 6 9 9 -10 2 -18 7 -18 10
0 4 -15 8 -33 9 l-32 2 24 -18z"/>
<path d="M3435 3930 c3 -5 13 -10 21 -10 8 0 12 5 9 10 -3 6 -13 10 -21 10 -8
0 -12 -4 -9 -10z"/>
<path d="M2235 3913 c4 -10 8 -26 9 -35 3 -27 8 -29 97 -31 46 -2 76 -1 67 1
-21 4 -24 32 -4 32 8 0 18 -9 21 -20 3 -11 11 -20 17 -20 5 0 7 7 4 16 -6 15
-4 15 19 0 24 -16 45 -14 45 3 0 4 -18 17 -40 30 -34 19 -39 20 -33 5 4 -11 2
-15 -6 -13 -7 3 -12 8 -11 13 2 12 -28 28 -39 21 -6 -3 -8 -15 -6 -26 5 -25
-21 -37 -46 -21 -13 8 -19 8 -21 0 -6 -16 -38 -2 -38 17 0 15 43 17 67 2 7 -4
14 -3 18 3 7 12 -42 33 -61 26 -7 -2 -15 -2 -18 2 -4 3 -16 7 -27 9 -17 3 -20
0 -14 -14z"/>
<path d="M3480 3926 c0 -2 7 -7 16 -10 8 -3 12 -2 9 4 -6 10 -25 14 -25 6z"/>
<path d="M3030 3892 c0 -12 7 -25 15 -29 27 -10 30 6 7 30 l-22 21 0 -22z"/>
<path d="M3067 3894 c3 -9 19 -14 42 -13 20 0 29 3 21 6 -64 21 -69 22 -63 7z"/>
<path d="M3395 3900 c3 -5 14 -10 23 -10 15 0 15 2 2 10 -20 13 -33 13 -25 0z"/>
<path d="M2097 3881 c-18 -7 -18 -8 -1 -21 11 -9 15 -10 10 -2 -4 7 -1 12 8
12 9 0 16 5 16 10 0 11 -7 12 -33 1z"/>
<path d="M3537 3884 c-8 -8 3 -34 15 -34 5 0 6 5 3 10 -3 6 -1 10 5 10 6 0 8
5 5 10 -7 11 -19 13 -28 4z"/>
<path d="M3175 3873 c-11 -3 -22 -8 -25 -12 -25 -31 -82 -69 -99 -64 -16 4
-19 1 -14 -19 3 -12 12 -31 20 -40 8 -9 12 -21 9 -26 -3 -5 2 -18 10 -28 11
-14 17 -15 20 -6 3 6 13 12 21 12 12 0 13 3 4 14 -10 11 -4 15 29 18 23 2 44
0 46 -4 3 -4 14 -8 26 -8 14 0 18 5 14 16 -3 9 -6 18 -6 20 0 2 -12 4 -26 4
-14 0 -23 4 -19 10 8 13 70 13 113 1 20 -6 32 -6 32 0 0 5 7 9 15 9 8 0 15 5
15 11 0 8 -15 10 -44 7 -24 -3 -50 -2 -56 2 -7 4 -26 4 -41 0 -17 -5 -29 -5
-29 1 0 5 -9 9 -20 9 -13 0 -20 -7 -20 -20 0 -11 -4 -20 -10 -20 -5 0 -10 5
-10 11 0 8 -5 8 -15 -1 -21 -18 -19 4 3 26 9 10 16 19 15 21 -10 12 0 13 13 2
15 -12 16 -11 10 7 -5 18 -1 24 24 32 16 6 30 13 30 16 0 6 -5 6 -35 -1z"/>
<path d="M3286 3870 c7 -6 39 -12 75 -12 104 0 119 2 119 12 0 6 -24 7 -62 4
-73 -7 -73 -7 -113 2 -23 5 -27 4 -19 -6z"/>
<path d="M2875 3860 c3 -5 8 -10 11 -10 2 0 4 5 4 10 0 6 -5 10 -11 10 -5 0
-7 -4 -4 -10z"/>
<path d="M3220 3855 c-10 -12 -8 -16 11 -24 26 -9 39 -6 39 10 0 5 -12 7 -27
3 -21 -4 -24 -3 -13 5 8 5 12 13 9 16 -4 3 -12 -1 -19 -10z"/>
<path d="M2340 3831 c0 -5 5 -13 10 -16 6 -3 10 -2 10 4 0 5 -4 13 -10 16 -5
3 -10 2 -10 -4z"/>
<path d="M2513 3825 c0 -8 4 -12 9 -9 4 3 8 9 8 15 0 5 -4 9 -8 9 -5 0 -9 -7
-9 -15z"/>
<path d="M2630 3830 c0 -5 9 -10 21 -10 13 0 18 -4 13 -12 -6 -10 -4 -10 7 0
7 6 27 12 44 12 23 0 26 3 15 10 -20 13 -100 13 -100 0z"/>
<path d="M1965 3820 c-3 -5 -3 -10 2 -10 4 0 1 -4 -7 -10 -12 -8 -12 -10 3
-16 10 -4 23 -2 29 4 8 8 7 13 -5 18 -9 3 -14 10 -11 15 3 5 3 9 0 9 -3 0 -8
-4 -11 -10z"/>
<path d="M3202 3814 c10 -10 20 -15 24 -12 3 4 -5 12 -18 18 -22 12 -22 12 -6
-6z"/>
<path d="M3368 3818 c6 -6 18 -8 28 -6 14 3 12 5 -9 10 -19 3 -25 2 -19 -4z"/>
<path d="M3448 3823 c12 -2 32 -2 45 0 12 2 2 4 -23 4 -25 0 -35 -2 -22 -4z"/>
<path d="M2270 3800 c14 -26 23 -30 48 -23 27 7 28 19 2 26 -11 3 -18 1 -14
-4 3 -5 0 -9 -5 -9 -6 0 -11 4 -11 9 0 5 -7 11 -15 15 -13 4 -13 2 -5 -14z"/>
<path d="M2608 3807 c12 -7 20 -16 17 -19 -3 -3 6 -5 20 -5 l26 0 -31 18 c-17
11 -36 19 -43 19 -6 -1 -2 -6 11 -13z"/>
<path d="M3335 3810 c3 -5 8 -10 11 -10 2 0 4 5 4 10 0 6 -5 10 -11 10 -5 0
-7 -4 -4 -10z"/>
<path d="M2010 3795 c0 -8 7 -15 16 -15 8 0 13 4 10 9 -4 5 0 12 6 14 7 3 3 6
-9 6 -14 1 -23 -5 -23 -14z"/>
<path d="M2080 3806 c0 -2 7 -6 15 -10 8 -3 15 -1 15 4 0 6 -7 10 -15 10 -8 0
-15 -2 -15 -4z"/>
<path d="M2906 3794 c-3 -9 -12 -14 -20 -11 -11 4 -12 -2 -4 -36 5 -23 14 -47
20 -54 8 -10 6 -17 -8 -28 -10 -8 -14 -15 -7 -15 6 0 15 5 18 10 4 6 11 8 16
5 5 -4 9 15 9 44 0 30 5 52 13 55 6 3 2 3 -10 0 -17 -4 -23 -1 -23 11 0 9 4
14 8 11 5 -3 9 1 9 9 0 20 -13 19 -21 -1z"/>
<path d="M3485 3790 c3 -5 8 -10 11 -10 2 0 4 5 4 10 0 6 -5 10 -11 10 -5 0
-7 -4 -4 -10z"/>
<path d="M2580 3780 c-13 -8 -12 -10 3 -10 9 0 17 5 17 10 0 12 -1 12 -20 0z"/>
<path d="M2660 3770 c-27 -9 -22 -12 23 -15 15 -1 26 3 24 8 -5 15 -17 16 -47
7z"/>
<path d="M2726 3769 c3 -5 12 -9 21 -9 19 0 9 13 -12 16 -8 1 -13 -2 -9 -7z"/>
<path d="M2468 3763 c7 -3 16 -2 19 1 4 3 -2 6 -13 5 -11 0 -14 -3 -6 -6z"/>
<path d="M1962 3748 c2 -6 10 -14 16 -16 7 -2 10 2 6 12 -7 18 -28 22 -22 4z"/>
<path d="M2555 3750 c-18 -8 -17 -9 8 -9 16 -1 26 -5 23 -10 -7 -11 35 -19 59
-11 20 7 20 7 -55 33 -8 3 -24 2 -35 -3z"/>
<path d="M2465 3740 c3 -5 19 -10 36 -10 16 0 29 5 29 10 0 6 -16 10 -36 10
-21 0 -33 -4 -29 -10z"/>
<path d="M2990 3731 c38 -21 58 -18 36 5 -8 8 -27 14 -43 14 l-28 -1 35 -18z"/>
<path d="M2678 3733 c6 -2 18 -2 25 0 6 3 1 5 -13 5 -14 0 -19 -2 -12 -5z"/>
<path d="M2960 3710 c0 -12 28 -25 36 -17 3 3 -4 10 -15 17 -15 7 -21 7 -21 0z"/>
<path d="M2570 3696 c0 -8 -10 -17 -22 -19 -17 -3 -14 -5 10 -6 32 -1 45 20
22 34 -5 3 -10 -1 -10 -9z"/>
<path d="M2465 3690 c-3 -6 1 -7 9 -4 18 7 21 14 7 14 -6 0 -13 -4 -16 -10z"/>
<path d="M2600 3691 c0 -5 5 -13 10 -16 6 -3 10 -2 10 4 0 5 -4 13 -10 16 -5
3 -10 2 -10 -4z"/>
<path d="M2815 3690 c3 -5 8 -10 11 -10 2 0 4 5 4 10 0 6 -5 10 -11 10 -5 0
-7 -4 -4 -10z"/>
<path d="M2747 3673 c33 -17 81 -10 53 7 -9 6 -17 5 -21 -2 -4 -7 -13 -7 -27
1 -11 6 -24 11 -29 10 -4 0 6 -7 24 -16z"/>
<path d="M2640 3665 c7 -8 16 -15 21 -15 5 0 6 7 3 15 -4 8 -13 15 -21 15 -13
0 -13 -3 -3 -15z"/>
<path d="M2680 3645 c0 -8 4 -15 10 -15 5 0 7 7 4 15 -4 8 -8 15 -10 15 -2 0
-4 -7 -4 -15z"/>
<path d="M2712 3635 c3 -27 24 -36 22 -10 -3 32 -4 35 -15 35 -6 0 -9 -11 -7
-25z"/>
<path d="M2781 3606 c-18 -42 -23 -46 -40 -36 -11 5 -23 15 -26 20 -3 6 -17
10 -30 10 -14 0 -25 7 -28 18 -3 14 -6 12 -17 -10 -7 -16 -20 -28 -28 -28 -8
0 -12 -6 -8 -15 3 -9 -3 -19 -16 -26 -18 -10 -20 -9 -15 5 4 9 2 16 -2 16 -8
0 -21 -23 -21 -36 0 -2 9 -4 19 -4 11 0 22 -4 25 -9 3 -5 17 -11 31 -13 22 -5
25 -2 19 15 -5 17 -2 19 27 15 19 -3 43 -9 54 -13 17 -8 18 -7 7 7 -13 17 -16
15 75 34 42 8 51 41 19 73 l-24 24 -21 -47z"/>
<path d="M2598 3633 c7 -3 16 -2 19 1 4 3 -2 6 -13 5 -11 0 -14 -3 -6 -6z"/>
<path d="M2508 3608 c-2 -16 -12 -25 -33 -29 -23 -5 -25 -7 -7 -8 12 0 22 -7
22 -16 0 -10 -6 -12 -17 -8 -15 6 -16 4 -5 -9 10 -12 10 -18 1 -23 -17 -11 17
-28 41 -20 17 5 20 15 20 71 0 61 -15 89 -22 42z"/>
<path d="M2405 3590 c-3 -5 1 -10 9 -10 8 0 18 5 21 10 3 6 -1 10 -9 10 -8 0
-18 -4 -21 -10z"/>
<path d="M3302 3591 c-11 -7 -11 -9 2 -14 10 -4 16 -1 16 8 0 17 -1 17 -18 6z"/>
<path d="M3349 3577 c5 -5 19 -7 32 -5 20 3 19 5 -9 9 -20 3 -29 2 -23 -4z"/>
<path d="M3652 3562 c-7 -5 19 -9 58 -9 38 0 70 3 70 8 0 11 -110 12 -128 1z"/>
<path d="M3800 3555 c0 -8 9 -15 19 -15 21 0 37 17 26 28 -3 3 -10 0 -15 -8
-7 -10 -10 -11 -10 -2 0 6 -4 12 -10 12 -5 0 -10 -7 -10 -15z"/>
<path d="M3480 3550 c8 -5 26 -10 39 -10 32 0 24 6 -19 14 -25 4 -31 3 -20 -4z"/>
<path d="M3570 3515 c0 -13 45 -13 57 1 7 7 0 10 -23 10 -19 -1 -34 -5 -34
-11z"/>
<path d="M2665 3510 c3 -5 11 -10 16 -10 6 0 7 5 4 10 -3 6 -11 10 -16 10 -6
0 -7 -4 -4 -10z"/>
<path d="M3500 3510 c0 -10 41 -21 52 -14 18 11 6 23 -22 22 -16 -1 -30 -4
-30 -8z"/>
<path d="M2600 3470 c0 -12 17 -12 45 0 17 7 15 9 -12 9 -18 1 -33 -3 -33 -9z"/>
<path d="M3405 3470 c-3 -5 1 -10 10 -10 9 0 13 5 10 10 -3 6 -8 10 -10 10 -2
0 -7 -4 -10 -10z"/>
<path d="M3453 3473 c9 -2 25 -2 35 0 9 3 1 5 -18 5 -19 0 -27 -2 -17 -5z"/>
<path d="M3723 3458 c-2 -5 9 -7 26 -6 17 1 31 6 31 10 0 10 -50 6 -57 -4z"/>
<path d="M2490 3430 c0 -5 5 -10 10 -10 6 0 10 5 10 10 0 6 -4 10 -10 10 -5 0
-10 -4 -10 -10z"/>
<path d="M2255 3420 c4 -6 11 -8 16 -5 14 9 11 15 -7 15 -8 0 -12 -5 -9 -10z"/>
<path d="M2440 3420 c-8 -5 -10 -10 -5 -10 6 0 17 5 25 10 8 5 11 10 5 10 -5
0 -17 -5 -25 -10z"/>
<path d="M3875 3410 c3 -5 8 -10 11 -10 2 0 4 5 4 10 0 6 -5 10 -11 10 -5 0
-7 -4 -4 -10z"/>
<path d="M2468 3393 c7 -3 16 -2 19 1 4 3 -2 6 -13 5 -11 0 -14 -3 -6 -6z"/>
<path d="M2453 3363 c9 -2 23 -2 30 0 6 3 -1 5 -18 5 -16 0 -22 -2 -12 -5z"/>
<path d="M3730 3350 c0 -5 5 -10 10 -10 6 0 10 5 10 10 0 6 -4 10 -10 10 -5 0
-10 -4 -10 -10z"/>
<path d="M2185 3340 c3 -5 8 -10 11 -10 2 0 4 5 4 10 0 6 -5 10 -11 10 -5 0
-7 -4 -4 -10z"/>
<path d="M2230 3300 c-8 -5 -12 -12 -9 -15 4 -3 12 1 19 10 14 17 11 19 -10 5z"/>
<path d="M2115 3290 c3 -5 8 -10 11 -10 2 0 4 5 4 10 0 6 -5 10 -11 10 -5 0
-7 -4 -4 -10z"/>
<path d="M2182 3289 c3 -8 2 -24 -3 -35 -10 -28 14 -109 32 -109 8 0 12 7 11
15 -14 58 -14 83 -1 91 11 7 10 9 -4 9 -10 0 -16 3 -14 8 3 4 -2 13 -10 21
-14 12 -15 12 -11 0z"/>
<path d="M3008 3253 c7 -3 16 -2 19 1 4 3 -2 6 -13 5 -11 0 -14 -3 -6 -6z"/>
<path d="M2240 3174 c0 -8 5 -12 10 -9 6 4 8 11 5 16 -9 14 -15 11 -15 -7z"/>
<path d="M3005 3180 c3 -5 10 -10 16 -10 5 0 9 5 9 10 0 6 -7 10 -16 10 -8 0
-12 -4 -9 -10z"/>
<path d="M1988 3165 c-16 -26 51 -64 81 -46 19 12 -5 26 -40 23 -19 -2 -29 3
-31 15 -2 10 -6 13 -10 8z"/>
<path d="M1818 3125 c18 -39 32 -43 58 -18 13 13 16 14 12 3 -8 -24 18 -40 59
-38 35 1 36 1 6 5 -23 3 -33 10 -37 29 -5 19 -13 24 -37 24 -17 0 -32 6 -35
15 -4 8 -14 15 -24 15 -16 0 -17 -2 -2 -35z"/>
<path d="M2093 3137 c4 -14 71 -27 88 -17 8 6 8 9 -1 15 -6 4 -14 5 -16 2 -3
-2 -21 -1 -40 3 -25 6 -34 5 -31 -3z"/>
<path d="M3018 3113 c7 -3 16 -2 19 1 4 3 -2 6 -13 5 -11 0 -14 -3 -6 -6z"/>
<path d="M1820 3076 c0 -2 11 -6 25 -8 14 -3 25 -1 25 3 0 5 -11 9 -25 9 -14
0 -25 -2 -25 -4z"/>
<path d="M2180 3046 c0 -28 14 -35 23 -12 3 8 -1 20 -9 26 -12 10 -14 8 -14
-14z"/>
<path d="M2010 3050 c0 -5 7 -10 16 -10 8 0 12 5 9 10 -3 6 -10 10 -16 10 -5
0 -9 -4 -9 -10z"/>
<path d="M2055 3050 c3 -5 8 -10 11 -10 2 0 4 5 4 10 0 6 -5 10 -11 10 -5 0
-7 -4 -4 -10z"/>
<path d="M2990 3021 c0 -5 12 -8 26 -8 18 0 22 2 13 8 -18 11 -39 11 -39 0z"/>
<path d="M2995 2890 c-3 -5 1 -10 9 -10 9 0 16 5 16 10 0 6 -4 10 -9 10 -6 0
-13 -4 -16 -10z"/>
<path d="M1890 2920 c0 -12 8 -12 35 0 18 8 17 9 -7 9 -16 1 -28 -3 -28 -9z"/>
<path d="M2665 2910 c3 -5 12 -7 20 -3 21 7 19 13 -6 13 -11 0 -18 -4 -14 -10z"/>
<path d="M2613 2893 c9 -2 23 -2 30 0 6 3 -1 5 -18 5 -16 0 -22 -2 -12 -5z"/>
<path d="M1920 2866 c6 -8 18 -12 27 -9 12 5 12 7 1 14 -7 5 -19 9 -27 9 -11
0 -11 -3 -1 -14z"/>
<path d="M2540 2870 c0 -10 7 -12 35 -12 32 0 39 4 20 12 -28 12 -55 12 -55 0z"/>
<path d="M1945 2839 c-16 -3 -23 -7 -14 -8 9 0 22 -8 29 -16 13 -16 95 -22 86
-7 -3 5 -20 7 -37 4 -26 -4 -31 -2 -26 11 8 21 -1 25 -38 16z"/>
<path d="M2000 2836 c0 -10 28 -13 41 -5 10 6 7 9 -13 9 -16 0 -28 -2 -28 -4z"/>
<path d="M1742 2823 c-23 -9 -3 -20 29 -15 22 3 27 7 18 13 -15 10 -27 10 -47
2z"/>
<path d="M2065 2810 c-4 -6 5 -10 20 -10 15 0 24 4 20 10 -3 6 -12 10 -20 10
-8 0 -17 -4 -20 -10z"/>
<path d="M2476 2809 c5 -9 -1 -10 -20 -5 -18 4 -25 3 -21 -4 8 -13 55 -13 55
0 0 6 33 9 90 6 50 -2 90 0 90 5 0 5 -45 9 -101 9 -73 0 -98 -3 -93 -11z"/>
<path d="M2695 2810 c3 -5 13 -10 21 -10 8 0 14 5 14 10 0 6 -9 10 -21 10 -11
0 -17 -4 -14 -10z"/>
<path d="M2180 2800 l-25 -8 27 -1 c15 -1 30 4 33 9 7 11 0 11 -35 0z"/>
<path d="M2361 2806 c2 -2 13 -8 25 -14 16 -9 21 -8 21 4 0 8 -10 14 -25 14
-14 0 -23 -2 -21 -4z"/>
<path d="M2280 2796 c0 -8 51 -13 56 -5 3 5 -9 9 -25 9 -17 0 -31 -2 -31 -4z"/>
<path d="M1818 2783 c12 -2 30 -2 40 0 9 3 -1 5 -23 4 -22 0 -30 -2 -17 -4z"/>
<path d="M1998 2763 c7 -3 16 -2 19 1 4 3 -2 6 -13 5 -11 0 -14 -3 -6 -6z"/>
<path d="M2168 2753 c7 -3 16 -2 19 1 4 3 -2 6 -13 5 -11 0 -14 -3 -6 -6z"/>
<path d="M2190 2725 c10 -12 10 -15 -4 -15 -9 0 -16 5 -16 10 0 6 -4 10 -10
10 -5 0 -7 -7 -4 -15 4 -9 19 -15 38 -15 18 0 41 -7 52 -15 22 -17 234 -22
234 -5 0 5 -42 7 -105 5 -83 -4 -107 -1 -119 10 -8 8 -21 15 -29 15 -8 0 -17
7 -21 15 -3 8 -11 15 -17 15 -8 0 -8 -4 1 -15z"/>
<path d="M1300 2726 c0 -7 71 -13 75 -6 2 3 -14 7 -36 8 -21 2 -39 1 -39 -2z"/>
<path d="M1510 2719 c0 -7 -12 -9 -36 -4 -24 4 -34 3 -29 -4 10 -17 75 -14 75
4 0 8 -2 15 -5 15 -3 0 -5 -5 -5 -11z"/>
<path d="M1815 2719 c18 -5 33 -5 39 1 7 7 -4 10 -29 9 -40 -1 -40 -1 -10 -10z"/>
<path d="M1908 2723 c6 -2 18 -2 25 0 6 3 1 5 -13 5 -14 0 -19 -2 -12 -5z"/>
<path d="M1960 2720 c0 -5 4 -10 9 -10 5 0 17 -3 25 -6 12 -5 15 -2 10 10 -7
17 -44 22 -44 6z"/>
<path d="M2054 2715 c8 -8 19 -15 24 -15 5 0 9 7 9 15 0 9 -10 15 -24 15 -22
0 -23 -2 -9 -15z"/>
<path d="M2100 2723 c1 -13 24 -38 38 -40 6 -2 12 4 12 12 0 8 -8 15 -17 15
-15 0 -16 2 -3 10 12 8 11 10 -7 10 -13 0 -23 -3 -23 -7z"/>
<path d="M1885 2700 l-30 -8 32 -1 c17 0 37 -3 45 -4 7 -2 10 -2 5 0 -4 3 -5
9 -1 14 6 10 -8 10 -51 -1z"/>
<path d="M1558 2683 c7 -3 16 -2 19 1 4 3 -2 6 -13 5 -11 0 -14 -3 -6 -6z"/>
<path d="M2008 2683 c7 -3 16 -2 19 1 4 3 -2 6 -13 5 -11 0 -14 -3 -6 -6z"/>
<path d="M2200 2679 c0 -5 9 -9 20 -9 11 0 20 2 20 4 0 2 -9 6 -20 9 -11 3
-20 1 -20 -4z"/>
<path d="M1308 2653 c7 -3 16 -2 19 1 4 3 -2 6 -13 5 -11 0 -14 -3 -6 -6z"/>
<path d="M1520 2650 c-12 -8 -11 -10 8 -10 12 0 22 5 22 10 0 13 -11 13 -30 0z"/>
<path d="M1630 2656 c0 -2 7 -7 16 -10 8 -3 12 -2 9 4 -6 10 -25 14 -25 6z"/>
<path d="M2103 2653 c9 -2 23 -2 30 0 6 3 -1 5 -18 5 -16 0 -22 -2 -12 -5z"/>
<path d="M2220 2650 c-12 -8 -10 -10 8 -10 13 0 20 4 17 10 -7 12 -6 12 -25 0z"/>
<path d="M2310 2650 c0 -5 5 -10 11 -10 5 0 7 5 4 10 -3 6 -8 10 -11 10 -2 0
-4 -4 -4 -10z"/>
<path d="M2378 2643 c7 -3 16 -2 19 1 4 3 -2 6 -13 5 -11 0 -14 -3 -6 -6z"/>
<path d="M1567 2624 c-3 -4 -30 -7 -59 -6 -49 0 -50 -1 -18 -8 19 -5 61 -6 95
-4 73 6 99 24 34 24 -25 0 -49 -3 -52 -6z"/>
<path d="M2040 2620 c0 -5 12 -10 26 -10 14 0 23 4 19 10 -3 6 -15 10 -26 10
-10 0 -19 -4 -19 -10z"/>
<path d="M2330 2601 c8 -5 25 -12 37 -15 18 -6 22 -4 17 8 -4 10 -18 16 -38
16 -22 -1 -27 -3 -16 -9z"/>
<path d="M2090 2596 c0 -2 14 -6 30 -8 17 -3 30 -1 30 4 0 4 -13 8 -30 8 -16
0 -30 -2 -30 -4z"/>
<path d="M2208 2593 c7 -3 16 -2 19 1 4 3 -2 6 -13 5 -11 0 -14 -3 -6 -6z"/>
<path d="M2246 2589 c3 -6 16 -8 29 -5 15 4 25 1 29 -9 3 -9 17 -14 33 -14
l28 2 -27 4 c-16 2 -28 11 -28 19 0 9 -11 14 -36 14 -23 0 -33 -4 -28 -11z"/>
<path d="M2194 2565 c11 -8 25 -15 30 -15 6 0 2 7 -8 15 -11 8 -25 15 -30 15
-6 0 -2 -7 8 -15z"/>
<path d="M1670 2522 c0 -9 21 -32 30 -32 3 0 6 9 6 20 0 13 -7 20 -18 20 -10
0 -18 -4 -18 -8z"/>
<path d="M1900 2520 c0 -5 5 -10 11 -10 5 0 7 5 4 10 -3 6 -8 10 -11 10 -2 0
-4 -4 -4 -10z"/>
<path d="M2275 2520 c3 -5 8 -10 11 -10 2 0 4 5 4 10 0 6 -5 10 -11 10 -5 0
-7 -4 -4 -10z"/>
<path d="M1385 2500 c3 -5 13 -10 21 -10 8 0 14 5 14 10 0 6 -9 10 -21 10 -11
0 -17 -4 -14 -10z"/>
<path d="M1820 2500 c0 -5 5 -10 11 -10 5 0 7 5 4 10 -3 6 -8 10 -11 10 -2 0
-4 -4 -4 -10z"/>
<path d="M1593 2493 c16 -3 27 -11 27 -20 0 -9 6 -13 14 -10 9 4 17 -1 19 -11
4 -15 5 -15 6 1 0 10 -6 20 -14 23 -8 4 -12 10 -9 15 3 5 -12 8 -33 8 -30 -2
-32 -3 -10 -6z"/>
<path d="M1778 2493 c6 -2 18 -2 25 0 6 3 1 5 -13 5 -14 0 -19 -2 -12 -5z"/>
<path d="M1953 2484 c0 -16 23 -19 31 -5 3 5 -2 11 -12 13 -11 3 -19 0 -19 -8z"/>
<path d="M2135 2490 c3 -5 14 -10 23 -10 15 0 15 2 2 10 -20 13 -33 13 -25 0z"/>
<path d="M1898 2483 c6 -2 18 -2 25 0 6 3 1 5 -13 5 -14 0 -19 -2 -12 -5z"/>
<path d="M1358 2473 c7 -3 16 -2 19 1 4 3 -2 6 -13 5 -11 0 -14 -3 -6 -6z"/>
<path d="M1828 2473 c6 -2 18 -2 25 0 6 3 1 5 -13 5 -14 0 -19 -2 -12 -5z"/>
<path d="M2035 2460 c-3 -5 3 -10 15 -10 12 0 18 5 15 10 -3 6 -10 10 -15 10
-5 0 -12 -4 -15 -10z"/>
<path d="M1973 2453 c9 -2 23 -2 30 0 6 3 -1 5 -18 5 -16 0 -22 -2 -12 -5z"/>
<path d="M2554 2444 c-17 -14 -17 -15 -1 -10 10 3 31 6 45 7 24 0 25 1 7 9
-28 12 -29 12 -51 -6z"/>
<path d="M2665 2450 c-3 -5 -2 -10 4 -10 5 0 13 5 16 10 3 6 2 10 -4 10 -5 0
-13 -4 -16 -10z"/>
<path d="M2166 2437 c10 -6 24 -5 38 1 18 8 16 10 -17 9 -28 -1 -33 -3 -21
-10z"/>
<path d="M2798 2443 c7 -3 16 -2 19 1 4 3 -2 6 -13 5 -11 0 -14 -3 -6 -6z"/>
<path d="M1810 2435 c0 -10 29 -24 34 -17 3 6 -3 12 -14 15 -11 3 -20 4 -20 2z"/>
<path d="M1775 2410 c10 -11 22 -17 26 -14 13 8 3 21 -22 27 -20 5 -20 5 -4
-13z"/>
<path d="M2315 2390 c3 -5 8 -10 11 -10 2 0 4 5 4 10 0 6 -5 10 -11 10 -5 0
-7 -4 -4 -10z"/>
<path d="M1821 2381 c-10 -6 -9 -10 3 -14 8 -3 18 -2 21 3 8 13 -9 20 -24 11z"/>
<path d="M2690 2379 c0 -12 31 -19 47 -10 12 6 8 9 -16 13 -17 2 -31 1 -31 -3z"/>
<path d="M2790 2369 c-14 -25 -3 -41 11 -16 6 9 17 17 24 17 8 0 15 5 15 10 0
19 -39 10 -50 -11z"/>
<path d="M1714 2369 c-3 -5 4 -9 15 -9 12 0 24 0 28 -1 4 0 9 3 10 8 4 11 -46
13 -53 2z"/>
<path d="M2860 2370 c0 -5 10 -15 23 -21 22 -12 22 -12 3 10 -21 23 -26 26
-26 11z"/>
<path d="M2302 2363 c-40 -8 -14 -20 34 -17 25 2 55 -1 65 -7 13 -6 19 -6 19
0 0 15 -79 31 -118 24z"/>
<path d="M1595 2350 c11 -5 27 -9 35 -9 9 0 8 4 -5 9 -11 5 -27 9 -35 9 -9 0
-8 -4 5 -9z"/>
<path d="M1650 2350 c0 -5 7 -10 16 -10 8 0 12 5 9 10 -3 6 -10 10 -16 10 -5
0 -9 -4 -9 -10z"/>
<path d="M2735 2350 c-3 -5 3 -10 15 -10 12 0 18 5 15 10 -3 6 -10 10 -15 10
-5 0 -12 -4 -15 -10z"/>
<path d="M1902 2339 c15 -9 85 -5 95 5 3 3 -20 5 -52 5 -35 -1 -52 -5 -43 -10z"/>
<path d="M1790 2334 c0 -3 10 -14 23 -25 23 -19 77 -26 77 -9 0 10 -14 14 -38
11 -7 -1 -19 5 -28 14 -15 15 -34 20 -34 9z"/>
<path d="M1840 2329 c0 -5 5 -7 10 -4 6 3 10 8 10 11 0 2 -4 4 -10 4 -5 0 -10
-5 -10 -11z"/>
<path d="M2105 2330 c3 -5 -2 -9 -12 -8 -10 0 -43 0 -73 -2 l-55 -3 64 -6 c42
-4 66 -11 69 -20 3 -10 -4 -12 -31 -9 l-36 4 27 -28 c15 -15 32 -28 37 -28 6
0 3 4 -5 10 -12 7 -11 12 8 28 12 10 18 22 15 26 -4 4 -1 11 6 15 14 9 7 31
-10 31 -6 0 -7 -4 -4 -10z"/>
<path d="M2140 2330 c0 -5 5 -10 10 -10 6 0 10 5 10 10 0 6 -4 10 -10 10 -5 0
-10 -4 -10 -10z"/>
<path d="M2190 2330 c0 -5 7 -10 16 -10 8 0 12 5 9 10 -3 6 -10 10 -16 10 -5
0 -9 -4 -9 -10z"/>
<path d="M1750 2305 c13 -14 25 -25 27 -25 1 0 -3 11 -9 25 -6 14 -18 25 -26
25 -12 0 -10 -6 8 -25z"/>
<path d="M2317 2319 c7 -7 15 -10 18 -7 3 3 -2 9 -12 12 -14 6 -15 5 -6 -5z"/>
<path d="M2710 2320 c0 -5 14 -10 30 -10 17 0 30 5 30 10 0 6 -13 10 -30 10
-16 0 -30 -4 -30 -10z"/>
<path d="M2881 2314 c0 -11 3 -14 6 -6 3 7 2 16 -1 19 -3 4 -6 -2 -5 -13z"/>
<path d="M2358 2308 c9 -9 15 -9 24 0 9 9 7 12 -12 12 -19 0 -21 -3 -12 -12z"/>
<path d="M2145 2300 c3 -5 21 -10 38 -9 31 1 31 1 7 9 -36 11 -52 11 -45 0z"/>
<path d="M2275 2300 c-3 -5 -1 -10 4 -10 6 0 11 5 11 10 0 6 -2 10 -4 10 -3 0
-8 -4 -11 -10z"/>
<path d="M1930 2285 c0 -15 31 -35 54 -35 14 0 26 -6 26 -12 0 -7 5 -5 11 5
14 23 9 28 -33 31 -18 1 -39 5 -45 9 -7 5 -13 5 -13 2z"/>
<path d="M2219 2258 c-17 -14 -19 -19 -7 -15 12 4 23 -1 34 -18 15 -23 54 -31
54 -11 0 5 9 1 19 -8 12 -11 21 -14 26 -7 3 6 -1 11 -9 11 -9 0 -16 4 -16 9 0
6 -12 9 -27 8 -16 -2 -34 3 -42 11 -11 11 -11 15 5 27 16 12 16 14 3 15 -9 0
-27 -10 -40 -22z"/>
<path d="M2280 2270 c0 -6 27 -10 62 -10 34 0 59 2 56 6 -11 10 -118 14 -118
4z"/>
<path d="M1518 2240 c33 -31 52 -38 52 -20 0 6 -6 10 -13 10 -8 0 -22 9 -32
20 -10 11 -23 20 -29 20 -6 0 4 -14 22 -30z"/>
<path d="M1897 2251 c12 -10 20 -21 17 -24 -3 -3 4 -8 16 -12 12 -4 23 -5 26
-2 8 7 -48 57 -65 57 -13 -1 -11 -4 6 -19z"/>
<path d="M1370 2250 c0 -5 5 -10 11 -10 5 0 7 5 4 10 -3 6 -8 10 -11 10 -2 0
-4 -4 -4 -10z"/>
<path d="M1628 2253 c6 -2 18 -2 25 0 6 3 1 5 -13 5 -14 0 -19 -2 -12 -5z"/>
<path d="M1675 2250 c3 -5 11 -10 16 -10 6 0 7 5 4 10 -3 6 -11 10 -16 10 -6
0 -7 -4 -4 -10z"/>
<path d="M1558 2243 c6 -2 18 -2 25 0 6 3 1 5 -13 5 -14 0 -19 -2 -12 -5z"/>
<path d="M1267 2199 c7 -7 15 -10 18 -7 3 3 -2 9 -12 12 -14 6 -15 5 -6 -5z"/>
<path d="M2048 2191 c-16 -9 -28 -20 -28 -24 0 -4 10 -2 23 5 12 6 32 11 45 9
12 -1 22 2 22 7 0 17 -34 19 -62 3z"/>
<path d="M2447 2204 c-3 -4 1 -13 11 -20 21 -16 32 -17 32 -4 0 6 -6 10 -14
10 -8 0 -16 5 -18 11 -2 5 -7 7 -11 3z"/>
<path d="M1173 2194 c2 -2 19 -9 37 -14 25 -7 31 -7 22 2 -6 6 -23 12 -38 14
-14 2 -24 1 -21 -2z"/>
<path d="M1855 2170 c-19 -8 -19 -9 3 -9 13 -1 31 -5 41 -11 10 -5 31 -6 47
-1 19 5 36 3 49 -5 11 -7 32 -10 48 -7 41 8 33 23 -9 16 -23 -4 -39 -2 -44 6
-9 15 -106 22 -135 11z"/>
<path d="M1278 2163 c7 -3 16 -2 19 1 4 3 -2 6 -13 5 -11 0 -14 -3 -6 -6z"/>
<path d="M1361 2165 c-1 -6 4 -16 11 -23 14 -14 62 -16 53 -2 -3 6 -17 10 -30
10 -13 0 -26 6 -28 13 -3 6 -6 7 -6 2z"/>
<path d="M1530 2160 c17 -11 47 -14 36 -3 -3 4 -17 8 -29 10 -17 2 -19 1 -7
-7z"/>
<path d="M1180 2141 c13 -25 33 -28 28 -4 -2 10 -11 19 -21 21 -16 3 -17 1 -7
-17z"/>
<path d="M2490 2140 c0 -5 7 -10 16 -10 8 0 12 5 9 10 -3 6 -10 10 -16 10 -5
0 -9 -4 -9 -10z"/>
<path d="M2400 2130 c-9 -6 -10 -10 -3 -10 6 0 15 5 18 10 8 12 4 12 -15 0z"/>
<path d="M1795 2110 c-3 -5 1 -10 10 -10 9 0 13 5 10 10 -3 6 -8 10 -10 10 -2
0 -7 -4 -10 -10z"/>
<path d="M1865 2111 c11 -5 26 -6 33 -4 6 3 12 1 12 -5 0 -9 41 -25 48 -18 7
8 -62 36 -87 35 -23 0 -24 -1 -6 -8z"/>
<path d="M2130 2116 c0 -2 7 -7 16 -10 8 -3 12 -2 9 4 -6 10 -25 14 -25 6z"/>
<path d="M1970 2100 c0 -5 5 -10 10 -10 6 0 10 5 10 10 0 6 -4 10 -10 10 -5 0
-10 -4 -10 -10z"/>
<path d="M2080 2100 c0 -6 7 -10 15 -10 8 0 15 2 15 4 0 2 -7 6 -15 10 -8 3
-15 1 -15 -4z"/>
<path d="M1358 2093 c7 -3 16 -2 19 1 4 3 -2 6 -13 5 -11 0 -14 -3 -6 -6z"/>
<path d="M2497 2063 c-17 -4 -17 -6 3 -20 17 -12 24 -13 30 -3 4 7 12 10 18 6
6 -3 13 -2 16 3 5 7 -29 23 -44 20 -3 -1 -13 -3 -23 -6z"/>
<path d="M1880 2055 c0 -8 64 -35 84 -35 20 1 20 1 2 15 -10 8 -22 12 -27 10
-4 -3 -19 -1 -33 5 -14 5 -26 8 -26 5z"/>
<path d="M1986 2045 c4 -8 11 -15 16 -15 6 0 5 6 -2 15 -7 8 -14 15 -16 15 -2
0 -1 -7 2 -15z"/>
<path d="M1108 2043 c7 -3 16 -2 19 1 4 3 -2 6 -13 5 -11 0 -14 -3 -6 -6z"/>
<path d="M1665 1961 c-17 -7 -17 -8 8 -13 19 -4 27 -1 27 8 0 15 -6 16 -35 5z"/>
<path d="M2333 2923 c9 -2 23 -2 30 0 6 3 -1 5 -18 5 -16 0 -22 -2 -12 -5z"/>
<path d="M3000 2649 c0 -5 5 -7 10 -4 6 3 10 8 10 11 0 2 -4 4 -10 4 -5 0 -10
-5 -10 -11z"/>
<path d="M2997 2613 c-12 -11 -8 -23 8 -23 8 0 15 7 15 15 0 16 -12 20 -23 8z"/>
<path d="M2990 2546 c0 -9 30 -14 35 -6 4 6 -3 10 -14 10 -12 0 -21 -2 -21 -4z"/>
</g>
</svg>
